<?xml version="1.0" encoding="utf-8"?>
<!-- Generator: Adobe Illustrator 27.4.1, SVG Export Plug-In . SVG Version: 6.00 Build 0)  -->
<svg version="1.1" id="Capa_1" xmlns="http://www.w3.org/2000/svg" xmlns:xlink="http://www.w3.org/1999/xlink" x="0px" y="0px"
	 viewBox="0 0 883.5 498.2" style="enable-background:new 0 0 883.5 498.2;" xml:space="preserve">
<style type="text/css">
	.st0{fill:url(#Ellipse_5015-2_00000041990925165942051420000003992398102346633404_);}
	.st1{fill:#E01650;}
	.st2{fill:#500C75;}
	.st3{fill:#AAAAAA;}
	.st4{fill:#494949;}
	.st5{fill:#FFFFFF;}
	.st6{fill:url(#Path_164757_00000176013026988903719160000010581771041002701184_);}
	.st7{fill:url(#Path_164817_00000052089606200642780830000012097984573401811621_);}
	.st8{fill:url(#Path_164879_00000160876874919577991890000001201305368133654664_);}
	.st9{fill:url(#Path_164939_00000085962968076857508390000004446522814580520612_);}
	.st10{fill:url(#Path_164999_00000078741612457459327220000006498038387693718957_);}
	.st11{fill:#C7ACF5;}
	.st12{fill:#FFC545;}
	.st13{fill:#E8E8E8;}
	.st14{fill:#AFAFAF;}
	.st15{fill:#94E0DA;}
	.st16{fill:#AFDB35;}
	.st17{fill:#607880;}
	.st18{fill:#DEE4F0;}
	.st19{fill:#DE6246;}
	.st20{fill:#FFB206;}
	.st21{fill:#F21857;}
	.st22{fill:#F4D844;}
	.st23{fill:#12263F;}
</style>
<g id="t8-info1" transform="translate(-10799 8660)">
	<g transform="matrix(1, 0, 0, 1, 10799, -8660)">
		
			<linearGradient id="Ellipse_5015-2_00000128456691628647148270000004554107600613409696_" gradientUnits="userSpaceOnUse" x1="131.4629" y1="-129.4312" x2="130.5079" y2="-128.4582" gradientTransform="matrix(3.078 -226.0871 226.0871 3.078 29166.75 30106.8711)">
			<stop  offset="0" style="stop-color:#EDEDED"/>
			<stop  offset="1" style="stop-color:#FFFFFF"/>
		</linearGradient>
		
			<circle id="Ellipse_5015-2_00000101099274865900345910000010515925469140560034_" style="fill:url(#Ellipse_5015-2_00000128456691628647148270000004554107600613409696_);" cx="441.7" cy="120.6" r="113.1"/>
	</g>
	<g id="Group_108201" transform="translate(14142.396 -7985.522)">
		<path id="Path_164690" class="st1" d="M-3014.5-484.1c-13-21-19.8-45.1-19.8-69.8h2.5c0,24.2,6.7,47.9,19.4,68.5L-3014.5-484.1z"
			/>
	</g>
	<g id="Group_108202" transform="translate(14142.396 -7985.522)">
		<path id="Path_164691" class="st2" d="M-2901.7-421.2c-23,0-45.6-5.9-65.5-17.3c-19.3-11-35.6-26.7-47.3-45.6l2.1-1.3
			c23.6,38.5,65.6,61.8,110.7,61.7V-421.2z"/>
	</g>
	<g id="Group_108203" transform="translate(14142.396 -7985.522)">
		<path id="Path_164692" class="st1" d="M-2901.7-421.2v-2.5c44.4,0.1,85.7-22.5,109.6-59.9l2.1,1.4
			C-2814.3-444.1-2856.4-421.1-2901.7-421.2z"/>
	</g>
	<g id="Group_108204" transform="translate(14142.396 -7985.522)">
		<path id="Path_164693" class="st2" d="M-2790-482.2l-2.1-1.4c13.5-21,20.6-45.4,20.6-70.3h2.5
			C-2768.9-528.5-2776.2-503.6-2790-482.2z"/>
	</g>
	<g id="Group_108205" transform="translate(14142.396 -7985.522)">
		<path id="Line_331" class="st3" d="M-2613.8-527.5c-0.1,0-0.2,0-0.3,0l-156.4-24.2c-1.1-0.2-1.8-1.2-1.7-2.3
			c0.2-1.1,1.2-1.8,2.3-1.7l156.4,24.2c1.1,0.2,1.8,1.2,1.7,2.3C-2612-528.3-2612.8-527.5-2613.8-527.5L-2613.8-527.5z"/>
		<path id="Path_164694" class="st4" d="M-2763.7-553.8c0,3.6-2.9,6.5-6.5,6.5s-6.5-2.9-6.5-6.5s2.9-6.5,6.5-6.5
			C-2766.6-560.3-2763.7-557.4-2763.7-553.8z"/>
	</g>
	<g id="Group_108206" transform="translate(14142.396 -7985.522)">
		<path id="Line_332" class="st3" d="M-2735.4-415.9c-0.4,0-0.8-0.1-1.2-0.4l-68.3-49.7c-0.9-0.6-1.1-1.9-0.4-2.8l0,0
			c0.6-0.9,1.9-1.1,2.8-0.4l0,0l68.3,49.7c0.9,0.7,1.1,1.9,0.4,2.8C-2734.2-416.2-2734.8-415.9-2735.4-415.9L-2735.4-415.9z"/>
		<path id="Path_164695" class="st4" d="M-2797.2-467.6c0,3.6-2.9,6.5-6.5,6.5s-6.5-2.9-6.5-6.5s2.9-6.5,6.5-6.5
			C-2800.1-474.1-2797.2-471.2-2797.2-467.6z"/>
	</g>
	<g id="Group_108207" transform="translate(14142.396 -7985.522)">
		<path id="Line_333" class="st3" d="M-2899.7-378h-4v-44.3h4V-378z"/>
		<path id="Path_164696" class="st4" d="M-2897.2-422.4c0,2.5-2,4.4-4.4,4.4c-2.5,0-4.4-2-4.4-4.4l0,0c0-2.5,2-4.4,4.4-4.4l0,0
			C-2899.2-426.8-2897.2-424.8-2897.2-422.4z"/>
	</g>
	<path id="Path_164697" class="st5" d="M11240.7-8647.1c59.5,0,107.7,48.2,107.7,107.7s-48.2,107.7-107.7,107.7l0,0
		c-59.5,0-107.7-48.2-107.7-107.7l0,0C11133-8598.9,11181.2-8647.1,11240.7-8647.1z"/>
	<path id="Path_164698" class="st1" d="M11675.4-8474.3v-65.1c0-3.5-1.9-6.8-4.9-8.5l-56.4-32.6c-3.1-1.8-6.8-1.8-9.9,0l-56.4,32.6
		c-3.1,1.8-4.9,5-4.9,8.5v65.1c0,3.5,1.9,6.8,4.9,8.5l56.4,32.6c3.1,1.8,6.8,1.8,9.9,0l56.4-32.6
		C11673.5-8467.5,11675.4-8470.8,11675.4-8474.3z"/>
	<path id="Rectangle_36078" class="st1" d="M11543.1-8440.4h132c4.1,0,7.4,3.3,7.4,7.4v27.5c0,4.1-3.3,7.4-7.4,7.4h-132
		c-4.1,0-7.4-3.3-7.4-7.4v-27.5C11535.7-8437.1,11539-8440.4,11543.1-8440.4z"/>
	<g id="Group_108210" transform="translate(14142.396 -7985.522)">
		<path id="Path_164756" class="st5" d="M-2475.9-493.2v-56.4c0-3.1-1.6-5.9-4.3-7.4l-48.8-28.2c-2.6-1.5-5.9-1.5-8.5,0l-48.8,28.2
			c-2.6,1.5-4.3,4.3-4.3,7.4v56.4c0,3.1,1.6,5.9,4.3,7.4l48.8,28.2c2.6,1.5,5.9,1.5,8.5,0l48.8-28.2
			C-2477.6-487.3-2475.9-490.1-2475.9-493.2z"/>
		
			<linearGradient id="Path_164757_00000067233252503980584050000011712331167268979074_" gradientUnits="userSpaceOnUse" x1="-6556.2163" y1="-126.7935" x2="-6556.75" y2="-127.5195" gradientTransform="matrix(110.2805 0 0 125.2269 720518.75 15401.707)">
			<stop  offset="0" style="stop-color:#FFFFFF"/>
			<stop  offset="0.439" style="stop-color:#FCFCFC"/>
			<stop  offset="0.682" style="stop-color:#F4F5F5"/>
			<stop  offset="0.875" style="stop-color:#E6E9E9"/>
			<stop  offset="0.995" style="stop-color:#DADEDE"/>
		</linearGradient>
		<path id="Path_164757" style="fill:url(#Path_164757_00000067233252503980584050000011712331167268979074_);" d="M-2478.2-493.5
			v-55.8c0-2.4-1.3-4.7-3.4-5.9l-48.3-27.9c-2.1-1.2-4.7-1.2-6.8,0l-48.3,27.9c-2.1,1.2-3.4,3.5-3.4,5.9v55.8c0,2.4,1.3,4.7,3.4,5.9
			l48.3,27.9c2.1,1.2,4.7,1.2,6.8,0l48.3-27.9C-2479.5-488.8-2478.2-491-2478.2-493.5z"/>
	</g>
	<path id="Path_164758" class="st2" d="M11522.8-8304.9v-65.1c0-3.5-1.9-6.8-4.9-8.5l-56.4-32.6c-3.1-1.8-6.8-1.8-9.9,0l-56.4,32.6
		c-3.1,1.8-4.9,5-4.9,8.5v65.1c0,3.5,1.9,6.8,4.9,8.5l56.4,32.6c3.1,1.8,6.8,1.8,9.9,0l56.4-32.6
		C11520.9-8298.1,11522.8-8301.3,11522.8-8304.9z"/>
	<path id="Rectangle_36079" class="st2" d="M11390.6-8270.9h132c4.1,0,7.4,3.3,7.4,7.4v27.5c0,4.1-3.3,7.4-7.4,7.4h-132
		c-4.1,0-7.4-3.3-7.4-7.4v-27.5C11383.2-8267.6,11386.5-8270.9,11390.6-8270.9z"/>
	<g id="Group_108212" transform="translate(14142.396 -7985.522)">
		<path id="Path_164816" class="st5" d="M-2628.5-323.7v-56.4c0-3.1-1.6-5.9-4.3-7.4l-48.8-28.2c-2.6-1.5-5.9-1.5-8.5,0l-48.8,28.2
			c-2.6,1.5-4.3,4.3-4.3,7.4v56.4c0,3.1,1.6,5.9,4.3,7.4l48.8,28.2c2.6,1.5,5.9,1.5,8.5,0l48.8-28.2
			C-2630.1-317.8-2628.5-320.6-2628.5-323.7z"/>
		
			<linearGradient id="Path_164817_00000052783367774761702350000015686969050384326534_" gradientUnits="userSpaceOnUse" x1="-6556.2148" y1="-126.7943" x2="-6556.749" y2="-127.5203" gradientTransform="matrix(110.2803 0 0 125.2261 720364.6875 15571.082)">
			<stop  offset="0" style="stop-color:#FFFFFF"/>
			<stop  offset="0.439" style="stop-color:#FCFCFC"/>
			<stop  offset="0.682" style="stop-color:#F4F5F5"/>
			<stop  offset="0.875" style="stop-color:#E6E9E9"/>
			<stop  offset="0.995" style="stop-color:#DADEDE"/>
		</linearGradient>
		<path id="Path_164817" style="fill:url(#Path_164817_00000052783367774761702350000015686969050384326534_);" d="M-2630.7-324
			v-55.8c0-2.4-1.3-4.7-3.4-5.9l-48.3-27.9c-2.1-1.2-4.7-1.2-6.8,0l-48.3,27.9c-2.1,1.2-3.4,3.5-3.4,5.9v55.8c0,2.4,1.3,4.7,3.4,5.9
			l48.3,27.9c2.1,1.2,4.7,1.2,6.8,0l48.3-27.9C-2632-319.3-2630.7-321.6-2630.7-324z"/>
	</g>
	<g id="Group_108213" transform="translate(14142.396 -7985.522)">
		<path id="Line_334" class="st3" d="M-3189.5-527.5c-1,0-1.8-0.7-2-1.7c-0.2-1.1,0.6-2.1,1.7-2.3l0,0l156.4-24.2
			c1.1-0.2,2.1,0.6,2.3,1.7l0,0c0.2,1.1-0.6,2.1-1.7,2.3l0,0l-156.4,24.2C-3189.3-527.5-3189.4-527.5-3189.5-527.5z"/>
		<path id="Path_164818" class="st4" d="M-3039.6-553.8c0,3.6,2.9,6.5,6.5,6.5s6.5-2.9,6.5-6.5s-2.9-6.5-6.5-6.5l0,0
			C-3036.7-560.3-3039.6-557.4-3039.6-553.8z"/>
	</g>
	<g id="Group_108214" transform="translate(14142.396 -7985.522)">
		<path id="Line_335" class="st3" d="M-3067.9-415.9c-0.6,0-1.2-0.3-1.6-0.8c-0.6-0.9-0.5-2.1,0.4-2.8l0,0l68.3-49.7
			c0.9-0.6,2.1-0.5,2.8,0.4l0,0c0.6,0.9,0.5,2.1-0.4,2.8l0,0l-68.3,49.7C-3067.1-416.1-3067.5-415.9-3067.9-415.9z"/>
		<path id="Path_164819" class="st4" d="M-3006.1-467.6c0,3.6,2.9,6.5,6.5,6.5s6.5-2.9,6.5-6.5s-2.9-6.5-6.5-6.5
			C-3003.2-474.1-3006.1-471.2-3006.1-467.6z"/>
	</g>
	<path id="Rectangle_36080" class="st1" d="M10938.4-8398.1h-132c-4.1,0-7.4-3.3-7.4-7.4v-27.5c0-4.1,3.3-7.4,7.4-7.4h132
		c4.1,0,7.4,3.3,7.4,7.4v27.5C10945.8-8401.4,10942.4-8398.1,10938.4-8398.1z"/>
	<path id="Path_165330" class="st5" d="M10835.8-8415.4h6.2v2.4h-9.2v-14.2h2.9L10835.8-8415.4z M10843.1-8418.4
		c0-1,0.2-1.9,0.6-2.8c0.4-0.8,1-1.5,1.7-1.9c0.8-0.5,1.7-0.7,2.6-0.7c1.3-0.1,2.6,0.4,3.5,1.3c0.9,0.9,1.5,2.2,1.5,3.5v0.7
		c0.1,1.4-0.4,2.8-1.4,3.9c-0.9,1-2.3,1.5-3.6,1.5c-1.4,0.1-2.7-0.5-3.6-1.5c-1-1.1-1.4-2.5-1.4-4H10843.1z M10845.9-8418.2
		c-0.1,0.8,0.1,1.6,0.6,2.3c0.4,0.5,1,0.8,1.6,0.8s1.2-0.3,1.6-0.8c0.4-0.8,0.6-1.6,0.6-2.5c0-0.8-0.2-1.6-0.6-2.3
		c-0.4-0.5-1-0.8-1.6-0.8s-1.2,0.3-1.6,0.8C10846-8420,10845.8-8419.1,10845.9-8418.2L10845.9-8418.2z M10860.5-8416
		c0-0.3-0.2-0.7-0.5-0.8c-0.5-0.3-1.1-0.4-1.6-0.5c-2.5-0.5-3.8-1.6-3.8-3.2c0-0.9,0.4-1.8,1.2-2.3c0.9-0.7,2-1,3.1-0.9
		c1.1-0.1,2.3,0.3,3.2,0.9c0.8,0.6,1.2,1.5,1.2,2.5h-2.8c0-0.4-0.1-0.7-0.4-1c-0.3-0.3-0.8-0.4-1.2-0.4s-0.8,0.1-1.1,0.3
		s-0.4,0.5-0.4,0.8s0.2,0.6,0.4,0.8c0.5,0.3,1,0.4,1.5,0.5c0.6,0.1,1.2,0.3,1.8,0.5c1.3,0.3,2.2,1.5,2.2,2.8c0,0.9-0.5,1.8-1.2,2.3
		c-0.9,0.6-2.1,0.9-3.2,0.9c-0.8,0-1.6-0.1-2.4-0.5c-0.6-0.3-1.2-0.7-1.6-1.3c-0.4-0.5-0.6-1.1-0.6-1.8h2.7c0,0.4,0.2,0.9,0.6,1.2
		c0.4,0.3,0.9,0.4,1.4,0.4c0.4,0,0.9-0.1,1.2-0.3C10860.4-8415.3,10860.5-8415.6,10860.5-8416z M10874-8416.5l2-7.1h2.9l-3.6,10.6
		h-2.7l-3.6-10.6h3L10874-8416.5z M10883.2-8413h-2.8v-10.6h2.8V-8413z M10880.2-8426.3c0-0.4,0.1-0.8,0.4-1
		c0.3-0.3,0.7-0.4,1.2-0.4c0.4,0,0.8,0.1,1.2,0.4c0.3,0.3,0.4,0.7,0.4,1c0,0.4-0.1,0.8-0.4,1.1c-0.3,0.3-0.7,0.4-1.1,0.4
		c-0.4,0-0.8-0.1-1.1-0.4C10880.3-8425.6,10880.1-8425.9,10880.2-8426.3L10880.2-8426.3z M10891.4-8421c-0.3,0-0.7-0.1-1-0.1
		c-0.9-0.1-1.7,0.3-2.1,1.1v6.9h-2.8v-10.6h2.7l0.1,1.3c0.4-0.9,1.4-1.5,2.4-1.5c0.3,0,0.6,0,0.9,0.1L10891.4-8421z M10899.1-8414.1
		c-0.7,0.9-1.8,1.3-2.9,1.3c-1,0.1-1.9-0.3-2.6-1c-0.6-0.8-1-1.8-0.9-2.9v-6.9h2.8v6.8c0,1.1,0.5,1.7,1.5,1.7c0.8,0.1,1.6-0.3,2-1
		v-7.5h2.8v10.6h-2.7L10899.1-8414.1z M10909.7-8416c0-0.3-0.2-0.7-0.5-0.8c-0.5-0.3-1.1-0.4-1.6-0.5c-2.5-0.5-3.8-1.6-3.8-3.2
		c0-0.9,0.4-1.8,1.2-2.3c0.9-0.7,2-1,3.1-0.9c1.1-0.1,2.3,0.3,3.2,0.9c0.8,0.6,1.2,1.5,1.2,2.5h-2.8c0-0.4-0.1-0.7-0.4-1
		c-0.3-0.3-0.8-0.4-1.2-0.4s-0.8,0.1-1.1,0.3s-0.4,0.5-0.4,0.8s0.2,0.6,0.4,0.8c0.5,0.3,1,0.4,1.5,0.5c0.6,0.1,1.2,0.3,1.8,0.5
		c1.3,0.3,2.2,1.5,2.2,2.8c0,0.9-0.5,1.8-1.2,2.3c-0.9,0.6-2.1,0.9-3.2,0.9c-0.8,0-1.6-0.1-2.4-0.5c-0.6-0.3-1.2-0.7-1.6-1.3
		c-0.4-0.5-0.6-1.1-0.6-1.8h2.7c0,0.4,0.2,0.9,0.6,1.2c0.4,0.3,0.9,0.4,1.4,0.4c0.4,0,0.9-0.1,1.2-0.3
		C10909.5-8415.3,10909.7-8415.6,10909.7-8416z"/>
	<path id="Rectangle_36081" class="st2" d="M11090.9-8228.6h-132c-4.1,0-7.4-3.3-7.4-7.4v-27.5c0-4.1,3.3-7.4,7.4-7.4h132
		c4.1,0,7.4,3.3,7.4,7.4v27.5C11098.3-8232,11095-8228.6,11090.9-8228.6z"/>
	<path id="Path_165329" class="st5" d="M10998.1-8245.4c-0.6,0.7-1.4,1.2-2.2,1.5c-1,0.4-2.1,0.5-3.2,0.5c-1.1,0-2.3-0.3-3.2-0.8
		s-1.7-1.4-2.1-2.3c-0.5-1.1-0.8-2.4-0.8-3.6v-1c0-1.3,0.2-2.5,0.7-3.7c0.4-1,1.2-1.8,2.1-2.4c1-0.6,2.1-0.9,3.2-0.8
		c1.4-0.1,2.8,0.3,4,1.2c1,0.9,1.6,2.2,1.7,3.5h-2.9c-0.1-0.7-0.4-1.3-0.9-1.8c-0.5-0.4-1.2-0.6-1.8-0.6c-0.9,0-1.8,0.4-2.3,1.1
		c-0.6,1-0.9,2.2-0.8,3.3v0.9c-0.1,1.2,0.2,2.4,0.9,3.4c0.6,0.8,1.5,1.2,2.5,1.1c0.8,0.1,1.7-0.2,2.4-0.7v-2.5h-2.7v-2.2h5.6
		L10998.1-8245.4z M11006.7-8244.6c-0.7,0.9-1.8,1.3-2.9,1.3c-1,0.1-1.9-0.3-2.6-1c-0.6-0.8-1-1.8-0.9-2.9v-6.9h2.8v6.8
		c0,1.1,0.5,1.7,1.5,1.7c0.8,0.1,1.6-0.3,2-1v-7.5h2.8v10.6h-2.7L11006.7-8244.6z M11017.2-8246.5c0-0.3-0.2-0.7-0.5-0.8
		c-0.5-0.3-1.1-0.4-1.6-0.5c-2.5-0.5-3.8-1.6-3.8-3.2c0-0.9,0.4-1.8,1.2-2.3c0.9-0.7,2-1,3.1-0.9c1.1-0.1,2.3,0.3,3.2,0.9
		c0.8,0.6,1.2,1.5,1.2,2.5h-2.8c0-0.4-0.1-0.7-0.4-1c-0.3-0.3-0.8-0.4-1.2-0.4s-0.8,0.1-1.1,0.3s-0.4,0.5-0.4,0.8s0.2,0.6,0.4,0.8
		c0.5,0.3,1,0.4,1.5,0.5c0.6,0.1,1.2,0.3,1.8,0.5c1.3,0.3,2.2,1.5,2.2,2.8c0,0.9-0.5,1.8-1.2,2.3c-0.9,0.6-2.1,0.9-3.2,0.9
		c-0.8,0-1.6-0.1-2.4-0.5c-0.6-0.3-1.2-0.7-1.6-1.3c-0.4-0.5-0.6-1.1-0.6-1.8h2.7c0,0.4,0.2,0.9,0.6,1.2c0.4,0.3,0.9,0.4,1.4,0.4
		c0.4,0,0.9-0.1,1.2-0.3C11017.1-8245.9,11017.3-8246.2,11017.2-8246.5z M11027.9-8243.6c-0.1-0.3-0.2-0.6-0.3-0.9
		c-0.7,0.8-1.7,1.2-2.7,1.1c-0.9,0-1.9-0.3-2.6-0.9c-0.7-0.6-1-1.4-1-2.3c-0.1-1,0.4-2,1.2-2.6c1.1-0.7,2.3-1,3.6-0.9h1.3v-0.6
		c0-0.4-0.1-0.8-0.4-1.2c-0.3-0.3-0.7-0.5-1.2-0.4c-0.4,0-0.8,0.1-1.1,0.3s-0.4,0.6-0.4,0.9h-2.8c0-0.6,0.2-1.2,0.6-1.7
		c0.4-0.5,1-1,1.6-1.2c0.7-0.3,1.5-0.5,2.3-0.4c1.1-0.1,2.2,0.3,3.1,1c0.8,0.7,1.2,1.7,1.2,2.8v4.6c0,0.8,0.1,1.6,0.4,2.3v0.2
		L11027.9-8243.6L11027.9-8243.6z M11025.6-8245.5c0.4,0,0.8-0.1,1.2-0.3c0.3-0.2,0.6-0.4,0.8-0.7v-1.8h-1.1c-1.4,0-2.2,0.5-2.3,1.5
		v0.2c0,0.3,0.1,0.7,0.4,0.9C11024.9-8245.6,11025.2-8245.5,11025.6-8245.5z M11035.1-8254.1l0.1,1.2c0.7-0.9,1.9-1.5,3-1.4
		c0.9-0.1,1.9,0.3,2.5,1c0.6,0.9,0.9,1.9,0.8,2.9v6.8h-2.8v-6.8c0-0.5-0.1-0.9-0.4-1.3c-0.4-0.3-0.8-0.5-1.3-0.4
		c-0.7,0-1.4,0.4-1.8,1v7.5h-2.8v-10.6L11035.1-8254.1z M11043.3-8248.9c0-1,0.2-1.9,0.6-2.8c0.4-0.8,1-1.5,1.7-1.9
		c0.8-0.5,1.7-0.7,2.6-0.7c1.3-0.1,2.6,0.4,3.5,1.3c0.9,0.9,1.5,2.2,1.5,3.5v0.7c0.1,1.4-0.4,2.8-1.4,3.9c-0.9,1-2.3,1.5-3.6,1.5
		c-1.4,0.1-2.7-0.5-3.6-1.5c-1-1.1-1.4-2.5-1.4-4H11043.3z M11046.1-8248.7c-0.1,0.8,0.1,1.6,0.6,2.3c0.4,0.5,1,0.8,1.6,0.8
		s1.2-0.3,1.6-0.8c0.4-0.8,0.6-1.6,0.6-2.5c0-0.8-0.2-1.6-0.6-2.3c-0.4-0.5-1-0.8-1.6-0.8s-1.2,0.3-1.6,0.8
		C11046.2-8250.5,11046.1-8249.6,11046.1-8248.7L11046.1-8248.7z M11060.8-8246.5c0-0.3-0.2-0.7-0.5-0.8c-0.5-0.3-1.1-0.4-1.6-0.5
		c-2.5-0.5-3.8-1.6-3.8-3.2c0-0.9,0.4-1.8,1.2-2.3c0.9-0.7,2-1,3.1-0.9c1.1-0.1,2.3,0.3,3.2,0.9c0.8,0.6,1.2,1.5,1.2,2.5h-2.8
		c0-0.4-0.1-0.7-0.4-1c-0.3-0.3-0.8-0.4-1.2-0.4s-0.8,0.1-1.1,0.3s-0.4,0.5-0.4,0.8s0.2,0.6,0.4,0.8c0.5,0.3,1,0.4,1.5,0.5
		c0.6,0.1,1.2,0.3,1.8,0.5c1.3,0.3,2.2,1.5,2.2,2.8c0,0.9-0.5,1.8-1.2,2.3c-0.9,0.6-2.1,0.9-3.2,0.9c-0.8,0-1.6-0.1-2.4-0.5
		c-0.6-0.3-1.2-0.7-1.6-1.3c-0.4-0.5-0.6-1.1-0.6-1.8h2.7c0,0.4,0.2,0.9,0.5,1.2c0.4,0.3,0.9,0.4,1.4,0.4c0.4,0,0.9-0.1,1.2-0.3
		C11060.6-8245.9,11060.8-8246.2,11060.8-8246.5z"/>
	<path id="Path_164820" class="st1" d="M11307-8238v-65.1c0-3.5-1.9-6.8-4.9-8.5l-56.4-32.6c-3.1-1.8-6.8-1.8-9.9,0l-56.4,32.6
		c-3.1,1.8-4.9,5-4.9,8.5v65.1c0,3.5,1.9,6.8,4.9,8.5l56.4,32.6c3.1,1.8,6.8,1.8,9.9,0l56.4-32.6
		C11305.1-8231.2,11307-8234.5,11307-8238z"/>
	<path id="Rectangle_36082" class="st1" d="M11174.8-8204.1h132c4.1,0,7.4,3.3,7.4,7.4v27.5c0,4.1-3.3,7.4-7.4,7.4h-132
		c-4.1,0-7.4-3.3-7.4-7.4v-27.5C11167.4-8200.8,11170.7-8204.1,11174.8-8204.1z"/>
	<g id="Group_108216" transform="translate(14142.396 -7985.522)">
		<path id="Path_164878" class="st5" d="M-2844.3-256.8v-56.4c0-3.1-1.6-5.9-4.3-7.4l-48.8-28.2c-2.6-1.5-5.9-1.5-8.5,0l-48.8,28.2
			c-2.6,1.5-4.3,4.3-4.3,7.4v56.4c0,3.1,1.6,5.9,4.3,7.4l48.8,28.2c2.6,1.5,5.9,1.5,8.5,0l48.8-28.2
			C-2845.9-251-2844.3-253.8-2844.3-256.8z"/>
		
			<linearGradient id="Path_164879_00000041288095650195610580000005533062952940675767_" gradientUnits="userSpaceOnUse" x1="-6556.2163" y1="-126.7936" x2="-6556.75" y2="-127.5196" gradientTransform="matrix(110.2805 0 0 125.2269 720150.4375 15638.0527)">
			<stop  offset="0" style="stop-color:#FFFFFF"/>
			<stop  offset="0.439" style="stop-color:#FCFCFC"/>
			<stop  offset="0.682" style="stop-color:#F4F5F5"/>
			<stop  offset="0.875" style="stop-color:#E6E9E9"/>
			<stop  offset="0.995" style="stop-color:#DADEDE"/>
		</linearGradient>
		<path id="Path_164879" style="fill:url(#Path_164879_00000041288095650195610580000005533062952940675767_);" d="M-2846.5-257.1
			v-55.8c0-2.4-1.3-4.7-3.4-5.9l-48.3-27.9c-2.1-1.2-4.7-1.2-6.8,0l-48.3,27.9c-2.1,1.2-3.4,3.5-3.4,5.9v55.8c0,2.4,1.3,4.7,3.4,5.9
			l48.3,27.9c2.1,1.2,4.7,1.2,6.8,0l48.3-27.9C-2847.8-252.4-2846.5-254.7-2846.5-257.1z"/>
	</g>
	<path id="Path_165328" class="st5" d="M11211.1-8188.5h-4.4v11.8h-2.9v-11.8h-4.3v-2.4h11.6L11211.1-8188.5z M11217.9-8184.6
		c-0.3,0-0.7-0.1-1-0.1c-0.9-0.1-1.7,0.3-2.1,1.1v6.9h-2.8v-10.6h2.7l0.1,1.3c0.4-0.9,1.4-1.5,2.4-1.5c0.3,0,0.6,0,0.9,0.1
		L11217.9-8184.6z M11218.4-8182.1c0-1,0.2-1.9,0.6-2.8c0.4-0.8,1-1.5,1.7-1.9c0.8-0.5,1.7-0.7,2.6-0.7c1.3-0.1,2.5,0.4,3.5,1.3
		c0.9,0.9,1.5,2.2,1.5,3.5v0.7c0.1,1.4-0.4,2.8-1.4,3.9c-0.9,1-2.3,1.5-3.6,1.5c-1.4,0.1-2.7-0.5-3.6-1.5c-1-1.1-1.4-2.5-1.4-4l0,0
		H11218.4z M11221.3-8181.9c-0.1,0.8,0.1,1.6,0.6,2.3c0.4,0.5,1,0.8,1.6,0.8s1.2-0.3,1.6-0.8c0.4-0.8,0.6-1.6,0.6-2.5
		c0-0.8-0.2-1.6-0.6-2.3c-0.4-0.5-1-0.8-1.6-0.8s-1.2,0.3-1.6,0.8C11221.4-8183.6,11221.2-8182.8,11221.3-8181.9z M11234-8180.7
		l2-6.6h3l-4.2,12.2l-0.2,0.6c-0.5,1.3-1.7,2.1-3.1,2.1c-0.4,0-0.8-0.1-1.2-0.2v-2.1h0.4c0.4,0,0.8-0.1,1.2-0.2
		c0.3-0.2,0.5-0.5,0.6-0.8l0.3-0.9l-3.7-10.6h3L11234-8180.7z M11246.1-8176.7c-0.1-0.3-0.2-0.6-0.3-0.9c-0.7,0.8-1.7,1.2-2.7,1.1
		c-0.9,0-1.9-0.3-2.6-0.9c-0.7-0.6-1-1.4-1-2.3c-0.1-1,0.4-2,1.2-2.6c1.1-0.7,2.3-1,3.6-0.9h1.3v-0.6c0-0.4-0.1-0.8-0.4-1.2
		c-0.3-0.3-0.7-0.5-1.2-0.4c-0.4,0-0.8,0.1-1.1,0.3c-0.3,0.2-0.4,0.6-0.4,0.9h-2.8c0-0.6,0.2-1.2,0.6-1.7c0.4-0.5,1-1,1.6-1.2
		c0.7-0.3,1.5-0.5,2.3-0.4c1.1-0.1,2.2,0.3,3.1,1c0.8,0.7,1.2,1.7,1.1,2.8v4.6c0,0.8,0.1,1.6,0.4,2.3v0.2L11246.1-8176.7
		L11246.1-8176.7z M11243.7-8178.7c0.4,0,0.8-0.1,1.2-0.3c0.3-0.2,0.6-0.4,0.8-0.7v-1.8h-1.1c-1.4,0-2.2,0.5-2.3,1.5v0.2
		c0,0.3,0.1,0.6,0.4,0.9C11243-8178.8,11243.4-8178.6,11243.7-8178.7z M11253.3-8187.3l0.1,1.2c0.7-0.9,1.9-1.5,3-1.4
		c0.9-0.1,1.9,0.3,2.5,1c0.6,0.9,0.9,1.9,0.8,2.9v6.8h-2.8v-6.8c0-0.5-0.1-0.9-0.4-1.3c-0.4-0.3-0.8-0.5-1.3-0.4
		c-0.7,0-1.4,0.4-1.8,1v7.5h-2.8v-10.6L11253.3-8187.3z M11261.4-8182.1c0-1,0.2-1.9,0.6-2.8c0.4-0.8,1-1.5,1.7-1.9
		c0.8-0.5,1.7-0.7,2.6-0.7c1.3-0.1,2.5,0.4,3.5,1.3c0.9,1,1.5,2.2,1.5,3.6v0.7c0.1,1.4-0.4,2.8-1.4,3.9c-0.9,1-2.3,1.5-3.6,1.5
		c-1.4,0.1-2.7-0.5-3.6-1.5c-1-1.1-1.4-2.5-1.4-4L11261.4-8182.1z M11264.2-8181.9c-0.1,0.8,0.1,1.6,0.6,2.3c0.4,0.5,1,0.8,1.6,0.8
		s1.2-0.3,1.6-0.8c0.4-0.8,0.6-1.6,0.6-2.5c0-0.8-0.2-1.6-0.6-2.3c-0.4-0.5-1-0.8-1.6-0.8s-1.2,0.3-1.6,0.8
		C11264.4-8183.6,11264.2-8182.7,11264.2-8181.9L11264.2-8181.9z M11278.9-8179.6c0-0.3-0.2-0.7-0.5-0.8c-0.5-0.3-1.1-0.4-1.6-0.5
		c-2.5-0.5-3.8-1.6-3.8-3.2c0-0.9,0.4-1.8,1.2-2.3c0.9-0.7,2-1,3.1-0.9c1.1-0.1,2.3,0.3,3.2,0.9c0.8,0.6,1.2,1.5,1.2,2.5h-2.8
		c0-0.4-0.1-0.7-0.4-1c-0.3-0.3-0.8-0.4-1.2-0.4s-0.8,0.1-1.1,0.3c-0.3,0.2-0.4,0.5-0.4,0.8s0.2,0.6,0.4,0.8c0.5,0.3,1,0.4,1.5,0.5
		c0.6,0.1,1.2,0.3,1.8,0.5c1.3,0.3,2.2,1.5,2.2,2.8c0,0.9-0.5,1.8-1.2,2.3c-0.9,0.6-2.1,0.9-3.2,0.9c-0.8,0-1.6-0.1-2.4-0.5
		c-0.6-0.3-1.2-0.7-1.6-1.3c-0.4-0.5-0.6-1.1-0.6-1.8h2.7c0,0.4,0.2,0.9,0.6,1.2c0.4,0.3,0.9,0.4,1.4,0.4c0.4,0,0.9-0.1,1.2-0.3
		C11278.7-8179,11278.9-8179.3,11278.9-8179.6z"/>
	<g id="Group_108217" transform="translate(14142.498 -7972.522)">
		<rect id="Rectangle_36083" x="-2956.5" y="-522.2" class="st1" width="27.6" height="2.3"/>
		<rect id="Rectangle_36084" x="-2929.1" y="-522.2" class="st2" width="27.6" height="2.3"/>
		<rect id="Rectangle_36085" x="-2901.8" y="-522.2" class="st1" width="27.6" height="2.3"/>
		<rect id="Rectangle_36086" x="-2874.4" y="-522.2" class="st2" width="27.6" height="2.3"/>
	</g>
	<path id="Path_164880" class="st1" d="M10938.6-8474.3v-65.1c0-3.5-1.9-6.8-4.9-8.5l-56.4-32.6c-3.1-1.8-6.8-1.8-9.9,0l-56.4,32.6
		c-3.1,1.8-4.9,5-4.9,8.5v65.1c0,3.5,1.9,6.8,4.9,8.5l56.4,32.6c3.1,1.8,6.8,1.8,9.9,0l56.4-32.6
		C10936.8-8467.5,10938.6-8470.8,10938.6-8474.3z"/>
	<g id="Group_108219" transform="translate(14142.396 -7985.522)">
		<path id="Path_164938" class="st5" d="M-3212.6-493.2v-56.4c0-3.1-1.6-5.9-4.3-7.4l-48.8-28.2c-2.6-1.5-5.9-1.5-8.5,0L-3323-557
			c-2.6,1.5-4.3,4.3-4.3,7.4v56.4c0,3.1,1.6,5.9,4.3,7.4l48.8,28.2c2.6,1.5,5.9,1.5,8.5,0l48.8-28.2
			C-3214.3-487.3-3212.6-490.1-3212.6-493.2z"/>
		
			<linearGradient id="Path_164939_00000057131062123752313120000017820929660399252632_" gradientUnits="userSpaceOnUse" x1="-6556.2158" y1="-126.7936" x2="-6556.75" y2="-127.5196" gradientTransform="matrix(110.2805 0 0 125.2269 719782.0625 15401.707)">
			<stop  offset="0" style="stop-color:#FFFFFF"/>
			<stop  offset="0.439" style="stop-color:#FCFCFC"/>
			<stop  offset="0.682" style="stop-color:#F4F5F5"/>
			<stop  offset="0.875" style="stop-color:#E6E9E9"/>
			<stop  offset="0.995" style="stop-color:#DADEDE"/>
		</linearGradient>
		<path id="Path_164939" style="fill:url(#Path_164939_00000057131062123752313120000017820929660399252632_);" d="M-3214.9-493.5
			v-55.8c0-2.4-1.3-4.7-3.4-5.9l-48.3-27.9c-2.1-1.2-4.7-1.2-6.8,0l-48.3,27.9c-2.1,1.2-3.4,3.5-3.4,5.9v55.8c0,2.4,1.3,4.7,3.4,5.9
			l48.3,27.9c2.1,1.2,4.7,1.2,6.8,0l48.3-27.9C-3216.2-488.8-3214.9-491-3214.9-493.5z"/>
	</g>
	<path id="Path_164940" class="st2" d="M11091.2-8304.9v-65.1c0-3.5-1.9-6.8-4.9-8.5l-56.4-32.6c-3.1-1.8-6.8-1.8-9.9,0l-56.4,32.6
		c-3.1,1.8-4.9,5-4.9,8.5v65.1c0,3.5,1.9,6.8,4.9,8.5l56.4,32.6c3.1,1.8,6.8,1.8,9.9,0l56.4-32.6
		C11089.3-8298.1,11091.2-8301.3,11091.2-8304.9z"/>
	<g id="Group_108221" transform="translate(14142.396 -7985.522)">
		<path id="Path_164998" class="st5" d="M-3060.1-323.7v-56.4c0-3.1-1.6-5.9-4.3-7.4l-48.8-28.2c-2.6-1.5-5.9-1.5-8.5,0l-48.8,28.2
			c-2.6,1.5-4.3,4.3-4.3,7.4v56.4c0,3.1,1.6,5.9,4.3,7.4l48.8,28.2c2.6,1.5,5.9,1.5,8.5,0l48.8-28.2
			C-3061.7-317.8-3060.1-320.6-3060.1-323.7z"/>
		
			<linearGradient id="Path_164999_00000140735642995423906220000017992706653469091753_" gradientUnits="userSpaceOnUse" x1="-6556.2163" y1="-126.7934" x2="-6556.7505" y2="-127.5194" gradientTransform="matrix(110.2795 0 0 125.2261 719928.125 15571.082)">
			<stop  offset="0" style="stop-color:#FFFFFF"/>
			<stop  offset="0.439" style="stop-color:#FCFCFC"/>
			<stop  offset="0.682" style="stop-color:#F4F5F5"/>
			<stop  offset="0.875" style="stop-color:#E6E9E9"/>
			<stop  offset="0.995" style="stop-color:#DADEDE"/>
		</linearGradient>
		<path id="Path_164999" style="fill:url(#Path_164999_00000140735642995423906220000017992706653469091753_);" d="M-3062.3-324
			v-55.8c0-2.4-1.3-4.7-3.4-5.9l-48.3-27.9c-2.1-1.2-4.7-1.2-6.8,0l-48.3,27.9c-2.1,1.2-3.4,3.5-3.4,5.9v55.8c0,2.4,1.3,4.7,3.4,5.9
			l48.3,27.9c2.1,1.2,4.7,1.2,6.8,0l48.3-27.9C-3063.6-319.3-3062.3-321.6-3062.3-324z"/>
	</g>
	<g id="contrasena" transform="translate(11579.1 -8541.583)">
		<g id="Group_108229" transform="translate(0.82 9.65)">
			<path id="Path_165000" class="st11" d="M2.3,0H56c1.3,0,2.3,1,2.3,2.3l0,0v26.1H0V2.3C0,1,1,0,2.3,0z"/>
			<path id="Path_165001" class="st12" d="M7,7h44.3v14.4H7V7z"/>
			<path id="Path_165002" class="st13" d="M0,28.4h58.4v5.8c0,1.3-1,2.3-2.3,2.3l0,0H2.3c-1.3,0-2.3-1-2.3-2.3l0,0V28.4z"/>
			<path id="Path_165003" class="st14" d="M38.9,46.6H19.5c2.9-1.3,4.7-4.2,4.7-7.4v-2.7h10v2.7C34.2,42.4,36,45.3,38.9,46.6
				L38.9,46.6z"/>
			<path id="Rectangle_36087" class="st13" d="M15.9,46.6h26.6c1,0,1.7,0.8,1.7,1.7l0,0c0,1-0.8,1.7-1.7,1.7H15.9
				c-1,0-1.7-0.8-1.7-1.7l0,0C14.1,47.4,14.9,46.6,15.9,46.6z"/>
			<path id="Path_165004" class="st15" d="M31.9,33.3h-5.5c-0.5,0-0.8-0.4-0.8-0.8c0-0.5,0.4-0.8,0.8-0.8h5.5c0.5,0,0.8,0.4,0.8,0.8
				C32.8,32.9,32.4,33.3,31.9,33.3z"/>
			<g id="Group_108228" transform="translate(11.328 9.492)">
				<path id="Path_165005" class="st16" d="M21.8,3.9h-1.9l1.4-1.4c0.3-0.3,0.3-0.8,0-1.2C21,1,20.5,1,20.1,1.3l-1.4,1.4V0.8
					c0-0.5-0.4-0.8-0.8-0.8S17,0.4,17,0.8v1.9l-1.4-1.4c-0.3-0.3-0.8-0.3-1.2,0c-0.3,0.3-0.3,0.8,0,1.2l1.4,1.4h-1.9
					c-0.5,0-0.8,0.4-0.8,0.8s0.4,0.8,0.8,0.8h1.9l-1.4,1.4c-0.3,0.3-0.3,0.8,0,1.2c0.3,0.3,0.8,0.3,1.2,0L17,6.7v1.9
					c0,0.5,0.4,0.8,0.8,0.8s0.8-0.4,0.8-0.8V6.7L20,8.1c0.3,0.3,0.8,0.3,1.2,0c0.3-0.3,0.3-0.8,0-1.2l-1.4-1.4h1.9
					c0.5,0,0.8-0.4,0.8-0.8S22.2,3.9,21.8,3.9L21.8,3.9z"/>
				<path id="Path_165006" class="st16" d="M34.9,3.9H33l1.4-1.4c0.3-0.3,0.3-0.8,0-1.2c-0.3-0.3-0.8-0.3-1.2,0l-1.4,1.4V0.8
					C31.8,0.4,31.4,0,31,0c-0.5,0-0.8,0.4-0.8,0.8v1.9l-1.4-1.4C28.5,1,28,1,27.6,1.3c-0.3,0.3-0.3,0.8,0,1.2L29,3.9h-1.9
					c-0.5,0-0.8,0.4-0.8,0.8s0.4,0.8,0.8,0.8H29l-1.4,1.4c-0.3,0.3-0.3,0.8,0,1.2c0.3,0.3,0.8,0.3,1.2,0l1.4-1.4v1.9
					c0,0.5,0.4,0.8,0.8,0.8c0.5,0,0.8-0.4,0.8-0.8V6.7l1.4,1.4c0.3,0.3,0.8,0.3,1.2,0c0.3-0.3,0.3-0.8,0-1.2L33,5.5h1.9
					c0.5,0,0.8-0.4,0.8-0.8S35.3,3.9,34.9,3.9L34.9,3.9z"/>
				<path id="Path_165007" class="st16" d="M8.6,3.9H6.7l1.4-1.4c0.3-0.3,0.3-0.8,0-1.2C7.8,1,7.3,1,6.9,1.3L5.5,2.7V0.8
					C5.5,0.4,5.2,0,4.7,0C4.3,0,3.9,0.4,3.9,0.8v1.9L2.5,1.4c-0.3-0.3-0.8-0.3-1.2,0C1,1.7,1,2.2,1.3,2.6L2.7,4H0.8
					C0.4,3.9,0,4.3,0,4.7s0.4,0.8,0.8,0.8l0,0h1.9L1.4,6.9c-0.3,0.3-0.3,0.8,0,1.2c0.3,0.3,0.8,0.3,1.2,0L4,6.7v1.9
					c0,0.5,0.4,0.8,0.8,0.8c0.5,0,0.8-0.4,0.8-0.8V6.7L7,8.1c0.3,0.3,0.8,0.3,1.2,0c0.3-0.3,0.3-0.8,0-1.2L6.7,5.5h1.9
					c0.5,0,0.8-0.4,0.8-0.8S9.1,3.9,8.6,3.9L8.6,3.9z"/>
			</g>
		</g>
		<g id="Group_108230" transform="translate(0 8.83)">
			<path id="Path_165008" d="M56.8,0H3.2C1.4,0,0,1.4,0,3.2V35c0,1.7,1.4,3.2,3.2,3.2h21V40c0,2.8-1.6,5.3-4.1,6.6h-3.4
				c-1.4,0-2.6,1.1-2.6,2.6c0,1.4,1.1,2.6,2.6,2.6h26.6c1.4,0,2.6-1.1,2.6-2.6c0-1.4-1.1-2.6-2.6-2.6h-3.4c-1.1-0.5-2-1.3-2.7-2.2
				c-0.3-0.4-0.8-0.4-1.1-0.2c-0.4,0.3-0.4,0.8-0.2,1.1c0.3,0.5,0.7,0.9,1.1,1.3H22.9c1.8-1.7,2.9-4.1,2.9-6.6v-1.8h8.4V40
				c0,0.5,0.4,0.8,0.8,0.8s0.8-0.4,0.8-0.8v-1.8h21c1.7,0,3.2-1.4,3.2-3.2V3.2C60,1.4,58.6,0,56.8,0z M39.7,48.2h3.6
				c0.5,0,0.9,0.4,0.9,0.9S43.8,50,43.3,50H16.7c-0.5,0-0.9-0.4-0.9-0.9s0.4-0.9,0.9-0.9H39.7z M1.6,3.2c0-0.8,0.7-1.5,1.5-1.5h53.7
				c0.8,0,1.5,0.7,1.5,1.5v25.3H1.6V3.2z M58.4,35c0,0.8-0.7,1.5-1.5,1.5H3.2c-0.8,0-1.5-0.7-1.5-1.5v-5h56.7V35z"/>
			<path id="Path_165009" d="M52.1,7H27.7c-0.5,0-0.8,0.4-0.8,0.8c0,0.5,0.4,0.8,0.8,0.8l0,0h23.7v12.7H8.7V8.7h6.8
				c0.5,0,0.8-0.4,0.8-0.8c0-0.5-0.4-0.8-0.8-0.8H7.9C7.4,7,7,7.4,7,7.9v14.4C7,22.7,7.4,23,7.9,23h44.3c0.5,0,0.8-0.4,0.8-0.8V7.9
				C53,7.4,52.6,7,52.1,7C52.2,7,52.1,7,52.1,7z"/>
			<path id="Path_165010" d="M20.6,8.7h1.9c0.5,0,0.8-0.4,0.8-0.8C23.3,7.4,23,7,22.5,7h-1.9c-0.5,0-0.8,0.4-0.8,0.8
				C19.8,8.3,20.2,8.7,20.6,8.7z"/>
			<path id="Path_165011" d="M27.3,34.1h5.5c0.5,0,0.8-0.4,0.8-0.8c0-0.5-0.4-0.8-0.8-0.8h-5.5c-0.5,0-0.8,0.4-0.8,0.8
				C26.4,33.8,26.8,34.1,27.3,34.1z"/>
			<path id="Path_165012" d="M26.1,15.9H28l-1.4,1.4c-0.3,0.3-0.3,0.8,0,1.2s0.8,0.3,1.2,0l1.4-1.4V19c0,0.5,0.4,0.8,0.8,0.8
				s0.8-0.4,0.8-0.8v-2l1.4,1.4c0.3,0.3,0.8,0.3,1.2,0s0.3-0.8,0-1.2L32,15.9h1.9c0.5,0,0.8-0.4,0.8-0.8s-0.4-0.8-0.8-0.8H32
				l1.4-1.4c0.3-0.3,0.3-0.8,0-1.2c-0.3-0.3-0.8-0.3-1.2,0l-1.4,1.4v-1.9c0-0.5-0.4-0.8-0.8-0.8s-0.8,0.4-0.8,0.8v1.9l-1.4-1.4
				c-0.3-0.3-0.8-0.3-1.2,0c-0.3,0.3-0.3,0.8,0,1.2l1.4,1.4h-1.9c-0.5,0-0.8,0.4-0.8,0.8S25.6,15.9,26.1,15.9L26.1,15.9z"/>
			<path id="Path_165013" d="M38.4,15c0,0.5,0.4,0.8,0.8,0.8h1.9l-1.4,1.4c-0.3,0.3-0.3,0.8,0,1.2c0.3,0.3,0.8,0.3,1.2,0l1.4-1.4
				v1.9c0,0.5,0.4,0.8,0.8,0.8c0.5,0,0.8-0.4,0.8-0.8V17l1.4,1.4c0.3,0.3,0.8,0.3,1.2,0c0.3-0.3,0.3-0.8,0-1.2l-1.4-1.4H47
				c0.5,0,0.8-0.4,0.8-0.8s-0.4-0.8-0.8-0.8h-1.9l1.4-1.4c0.3-0.3,0.3-0.8,0-1.2c-0.3-0.3-0.8-0.3-1.2,0l0,0L43.9,13v-1.9
				c0-0.5-0.4-0.8-0.8-0.8c-0.5,0-0.8,0.4-0.8,0.8V13l-1.4-1.4c-0.3-0.3-0.8-0.3-1.2,0c-0.3,0.3-0.3,0.8,0,1.2l1.4,1.4h-1.9
				C38.8,14.2,38.4,14.6,38.4,15L38.4,15z"/>
			<path id="Path_165014" d="M16.1,13.1l-1.4-1.4c-0.3-0.3-0.8-0.3-1.2,0c-0.3,0.3-0.3,0.8,0,1.2l1.4,1.4H13c-0.5,0-0.8,0.4-0.8,0.8
				s0.4,0.8,0.8,0.8l0,0h1.9l-1.4,1.4c-0.3,0.3-0.3,0.8,0,1.2s0.8,0.3,1.2,0l1.4-1.4V19c0,0.5,0.4,0.8,0.8,0.8
				c0.5,0,0.8-0.4,0.8-0.8v-2l1.4,1.4c0.3,0.3,0.8,0.3,1.2,0s0.3-0.8,0-1.2l-1.4-1.4h1.9c0.5,0,0.8-0.4,0.8-0.8s-0.4-0.8-0.8-0.8
				h-1.9l1.4-1.4c0.3-0.3,0.3-0.8,0-1.2c-0.3-0.3-0.8-0.3-1.2,0L17.7,13v-1.9c0-0.5-0.4-0.8-0.8-0.8c-0.5,0-0.8,0.4-0.8,0.8V13.1z"
				/>
		</g>
	</g>
	<g id="deteccion" transform="translate(11216 -8599.391)">
		<g id="Group_108233" transform="translate(0.684 0.675)">
			<circle id="Ellipse_5016" class="st12" cx="33.9" cy="14.8" r="14.8"/>
			<path id="Path_165015" class="st13" d="M1.1,47.5c-1.5-1.5-1.5-3.9,0-5.4l12.7-12.7l5.4,5.4L6.5,47.5C5,49,2.6,49,1.1,47.5
				L1.1,47.5z"/>
			<path id="Path_165016" class="st11" d="M23.4,25.2c-0.4-0.4-0.9-0.9-1.2-1.4l-3.8,3.8l2.6,2.6l3.8-3.8
				C24.3,26,23.9,25.6,23.4,25.2L23.4,25.2z"/>
			<path id="Path_165017" class="st14" d="M18.2,27.3l3.1,3.1c0.6,0.6,0.6,1.6,0,2.3l-2.1,2.1l-5.4-5.4l2.1-2.1
				C16.6,26.7,17.6,26.7,18.2,27.3z"/>
			<g id="Group_108232" transform="translate(25.537 6.961)">
				<path id="Path_165018" class="st17" d="M7.4,2.9c-0.3,0-0.5-0.1-0.6-0.4L6,1C5.9,0.7,6,0.2,6.3,0.1c0.4-0.2,0.8-0.1,1,0.2l0,0
					L8,1.9c0.2,0.3,0,0.7-0.3,0.9C7.7,2.9,7.5,2.9,7.4,2.9L7.4,2.9z"/>
				<path id="Path_165019" class="st17" d="M9.2,2.9c-0.4,0-0.7-0.3-0.7-0.7c0-0.1,0-0.2,0.1-0.3l0.8-1.5C9.6,0,10-0.1,10.3,0.1
					s0.4,0.6,0.3,0.9L9.8,2.5C9.7,2.8,9.5,2.9,9.2,2.9L9.2,2.9z"/>
				<path id="Path_165020" class="st18" d="M7,2.2h2.7c0.6,0,1.2,0.5,1.2,1.2V5h-5V3.4C5.8,2.7,6.4,2.2,7,2.2z"/>
				<g id="Group_108231" transform="translate(0 4.068)">
					<path id="Path_165021" class="st19" d="M2,3c0.1,0.1,0.3,0.2,0.5,0.2H4c0.4,0,0.7-0.3,0.7-0.7S4.4,1.8,4,1.8c0,0,0,0-0.1,0H2.8
						L1.2,0.2c-0.3-0.3-0.7-0.3-1,0s-0.3,0.7,0,1L2,3z"/>
					<path id="Path_165022" class="st19" d="M4.4,7.7H2.5C2.3,7.7,2.2,7.8,2,7.9L0.2,9.7c-0.3,0.3-0.3,0.7,0,1s0.7,0.3,1,0l1.6-1.6
						h1.6c0.4,0,0.7-0.3,0.7-0.7C5.1,8.1,4.8,7.7,4.4,7.7L4.4,7.7z"/>
					<path id="Path_165023" class="st19" d="M0.7,5.9H4c0.4,0,0.7-0.3,0.7-0.7c0-0.4-0.3-0.6-0.7-0.7H0.7C0.3,4.5,0,4.8,0,5.2
						C0,5.6,0.3,5.9,0.7,5.9z"/>
					<path id="Path_165024" class="st19" d="M12.7,3.2h1.5c0.2,0,0.4-0.1,0.5-0.2l1.8-1.8c0.3-0.3,0.3-0.7,0-1s-0.7-0.3-1,0l0,0
						l-1.6,1.6h-1.2c-0.4,0-0.7,0.3-0.7,0.7S12.3,3.2,12.7,3.2L12.7,3.2L12.7,3.2z"/>
					<path id="Path_165025" class="st19" d="M14.6,7.9c-0.1-0.1-0.3-0.2-0.5-0.2h-1.9c-0.4,0-0.7,0.3-0.7,0.7c0,0.4,0.3,0.6,0.7,0.7
						h1.6l1.6,1.6c0.3,0.3,0.7,0.3,1,0s0.3-0.7,0-1l0,0L14.6,7.9z"/>
					<path id="Path_165026" class="st19" d="M16,4.5h-3.3c-0.4,0-0.7,0.3-0.7,0.7c0,0.4,0.3,0.6,0.7,0.7H16c0.4,0,0.7-0.3,0.7-0.7
						C16.6,4.8,16.3,4.5,16,4.5L16,4.5z"/>
				</g>
				<path id="Path_165027" class="st14" d="M5.5,5h5.6c0.9,0,1.6,0.7,1.6,1.6v4c0,2.4-1.9,4.4-4.3,4.4S4,13.1,4,10.7v-0.1v-4
					C4,5.7,4.7,5,5.5,5L5.5,5z"/>
				<path id="Path_165028" class="st15" d="M7.6,14.8c0.5,0.1,0.9,0.1,1.4,0V5H7.6V14.8z"/>
			</g>
		</g>
		<g id="Group_108234" transform="translate(0 -0.014)">
			<path id="Path_165029" d="M45.5,4.5c-0.3-0.3-0.7-0.2-1,0c-0.3,0.3-0.3,0.7,0,0.9c5.5,5.5,5.5,14.4,0,19.9s-14.4,5.5-19.9,0
				s-5.5-14.4,0-19.9C29.1,1,36,0.1,41.4,3.2c0.3,0.2,0.7,0.1,0.9-0.2s0.1-0.7-0.2-0.9l0,0c-7.4-4.2-16.9-1.5-21,5.9
				c-2.9,5.2-2.6,11.6,0.9,16.5l-2.9,2.9c-0.9-0.7-2.2-0.6-3,0.2l-2.1,2L1.3,42.3c-1.8,1.7-1.8,4.6,0,6.3s4.6,1.8,6.3,0l0,0l2.3-2.3
				c0.3-0.3,0.2-0.7,0-1C9.6,45,9.2,45,9,45.3l-2.3,2.3c-1.2,1.3-3.1,1.3-4.4,0.2S1,44.7,2.1,43.4c0.1-0.1,0.1-0.1,0.2-0.2
				l12.2-12.3l4.4,4.4l-2.4,2.4c-0.3,0.3-0.2,0.7,0.1,1c0.3,0.2,0.7,0.2,0.9,0l2.9-2.9l2.1-2.1c0.8-0.8,0.9-2,0.2-3l2.9-2.9
				c6.9,4.9,16.6,3.3,21.5-3.6C51.5,18.3,50.8,9.9,45.5,4.5L45.5,4.5z M21.5,32.9l-1.6,1.6l-4.4-4.4l1.6-1.6c0.4-0.4,0.9-0.4,1.3,0
				l0.2,0.2l2.6,2.6l0.2,0.2C21.9,32,21.9,32.5,21.5,32.9L21.5,32.9L21.5,32.9z M21.8,29.9l-1.7-1.7l2.7-2.7
				c0.3,0.3,0.5,0.6,0.8,0.9s0.6,0.5,0.9,0.8L21.8,29.9z"/>
			<path id="Path_165030" d="M13.4,41l-1.3,1.3c-0.3,0.3-0.2,0.7,0,1c0.3,0.3,0.7,0.3,0.9,0l1.3-1.3c0.3-0.3,0.3-0.7,0-1
				C14.1,40.7,13.7,40.7,13.4,41L13.4,41z"/>
			<path id="Path_165031" d="M41.7,11.9l-1.6,1.6h-0.6c-0.3-0.8-0.9-1.4-1.8-1.5v-1c0-0.8-0.5-1.5-1.2-1.7l0.3-0.6
				C37,8.4,36.9,8,36.6,7.8c-0.3-0.2-0.7-0.1-0.9,0.2c0,0,0,0,0,0.1L35,9.2h-1L33.5,8c-0.2-0.3-0.6-0.4-0.9-0.3
				c-0.3,0.2-0.4,0.6-0.3,0.9l0.3,0.6c-0.7,0.3-1.2,1-1.2,1.7v1c-0.8,0.1-1.5,0.7-1.8,1.5H29l-1.6-1.6c-0.3-0.3-0.7-0.2-1,0
				c-0.3,0.3-0.3,0.7,0,0.9l1.8,1.8c0.1,0.1,0.3,0.2,0.5,0.2h0.8V16h-2.6c-0.4,0-0.7,0.3-0.7,0.7s0.3,0.6,0.7,0.7h2.6V18
				c0,0.4,0.1,0.8,0.2,1.3h-0.9c-0.2,0-0.4,0.1-0.5,0.2l-1.8,1.8c-0.3,0.3-0.2,0.7,0,1c0.3,0.3,0.7,0.3,0.9,0l1.6-1.6h1.2
				c1.4,2.4,4.5,3.1,6.9,1.7c0.7-0.4,1.3-1,1.7-1.7H40l1.6,1.6c0.3,0.3,0.7,0.3,1,0s0.3-0.7,0-1l0,0l-1.8-1.8
				c-0.1-0.1-0.3-0.2-0.5-0.2h-0.9c0.1-0.4,0.2-0.8,0.2-1.3v-0.6h2.6c0.4,0,0.7-0.3,0.7-0.7c0-0.4-0.3-0.7-0.7-0.7c0,0,0,0-0.1,0
				h-2.6v-1.3h0.8c0.2,0,0.4-0.1,0.5-0.2l1.8-1.8c0.3-0.3,0.3-0.7,0-1S42,11.7,41.7,11.9L41.7,11.9z M32.7,12v-1
				c0-0.3,0.2-0.5,0.5-0.5h2.7c0.3,0,0.5,0.2,0.5,0.5v1H32.7z M30.9,18.2v-4c0-0.5,0.4-0.9,0.9-0.9h2.1v8.5
				C32.1,21.5,30.9,20,30.9,18.2L30.9,18.2z M35.2,21.8v-8.5h2.1c0.5,0,0.9,0.4,0.9,0.9v4C38.2,20,37,21.5,35.2,21.8L35.2,21.8z"/>
		</g>
	</g>
	<g id="gusano" transform="translate(10994.934 -8377.288)">
		<g id="Group_108238" transform="translate(0.82 19.41)">
			<path id="Path_165032" class="st12" d="M56,40.9H2.3c-1.3,0-2.3-1-2.3-2.3V2.3C0,1,1,0,2.3,0h26.8l4.7,9.4h24.5v29.2
				C58.4,39.9,57.3,40.9,56,40.9L56,40.9z"/>
			<path id="Path_165033" class="st18" d="M23.4,8.5c0,1.6-1.3,2.8-2.8,2.8l0,0h-5.4c-1.3,0-2.5,0.6-3.2,1.7
				c-0.2,0.3-0.4,0.7-0.5,1.1c0,0.2-0.1,0.4-0.1,0.6c0,0.4,0,0.7,0.1,1.1s0.2,0.8,0.5,1.1c0.3,0.5,0.7,0.9,1.2,1.2
				c0.3,0.2,0.7,0.4,1.1,0.5c0.3,0.1,0.5,0.1,0.8,0.1h5.3v5.6h-5.1c-0.3,0-0.7,0-1-0.1c-1.9-0.2-3.6-0.9-5.1-2.1
				C8.8,21.8,8.4,21.4,8,21c-1.2-1.4-2-3.2-2.2-5.1c0-0.2,0-0.3,0-0.5c0-0.4,0-0.8,0-1.2c0.3-1.9,1-3.7,2.2-5.2
				c0.4-0.4,0.7-0.8,1.2-1.2c1.4-1.2,3.2-2,5.1-2.1c0.3,0,0.5,0,0.8,0h5.5C22.2,5.7,23.4,7,23.4,8.5L23.4,8.5z"/>
			<path id="Path_165034" class="st18" d="M50.5,27.6c0,0.2,0,0.3,0,0.5c-0.2,1.7-0.9,3.3-2,4.7c-0.4,0.4-0.7,0.8-1.2,1.1
				c-1.3,1.1-2.9,1.8-4.7,2c-0.3,0-0.7,0.1-1,0.1H21.5c-1.4,0-2.5-1.1-2.5-2.5v-0.6c0-1.4,1.1-2.5,2.5-2.5h20.3
				c1.1,0,2.2-0.6,2.7-1.6c0.1-0.2,0.2-0.4,0.3-0.7c0-0.1,0.1-0.3,0.1-0.4c0.1-0.4,0-0.8-0.1-1.2c-0.1-0.2-0.2-0.5-0.3-0.7
				c-0.3-0.5-0.7-0.9-1.2-1.2c-0.2-0.1-0.4-0.2-0.7-0.3c-0.3-0.1-0.5-0.1-0.8-0.1h-5.3v-5.6h5.3c0.3,0,0.5,0,0.8,0
				c1.7,0.2,3.4,0.8,4.7,1.9c0.4,0.4,0.8,0.7,1.2,1.2c1.1,1.3,1.8,3,1.9,4.7C50.5,26.8,50.5,27.2,50.5,27.6z"/>
			<path id="Path_165035" class="st20" d="M31.3,4.2H56c1.3,0,2.3,1,2.3,2.3l0,0v2.8H33.9L31.3,4.2z"/>
			<g id="Group_108237" transform="translate(5.858 5.7)">
				<path id="Path_165036" class="st17" d="M14.6,21.3c-0.5,0-0.8-0.4-0.8-0.8V11c0-0.5,0.4-0.8,0.8-0.8s0.8,0.4,0.8,0.8v9.4
					C15.4,20.9,15.1,21.3,14.6,21.3L14.6,21.3z"/>
				<path id="Path_165037" class="st17" d="M30.7,21.3c-0.5,0-0.8-0.4-0.8-0.8V11c0-0.5,0.4-0.8,0.8-0.8c0.5,0,0.8,0.4,0.8,0.8v9.4
					C31.5,20.9,31.1,21.3,30.7,21.3L30.7,21.3z"/>
				<g id="Group_108235" transform="translate(19.141 12.919)">
					<path id="Path_165038" class="st17" d="M17.7,0v5.7c-0.3-0.1-0.5-0.1-0.8-0.1H16V0h0.8C17.1,0,17.4,0,17.7,0z"/>
					<path id="Path_165039" class="st17" d="M17.7,11.6v5.7c-0.3,0-0.7,0.1-1,0.1H16v-5.6h0.7C17.1,11.7,17.4,11.6,17.7,11.6z"/>
					<path id="Path_165040" class="st17" d="M23.5,3.1l-4,4c-0.3-0.5-0.7-0.9-1.2-1.2l4-4C22.8,2.3,23.2,2.7,23.5,3.1z"/>
					<path id="Path_165041" class="st17" d="M23.5,14.1c-0.4,0.4-0.7,0.8-1.2,1.1l-4-4c0.5-0.3,0.9-0.7,1.2-1.1L23.5,14.1z"/>
					<path id="Path_165042" class="st17" d="M25.5,9c0,0.2,0,0.3,0,0.5h-5.7c0-0.1,0.1-0.3,0.1-0.4c0.1-0.4,0-0.8-0.1-1.2h5.7
						C25.5,8.2,25.5,8.6,25.5,9z"/>
					<path id="Path_165043" class="st17" d="M0,11.7h1.6v5.6H0V11.7z"/>
					<path id="Path_165044" class="st17" d="M5.3,11.7H7v5.6H5.3V11.7z"/>
					<path id="Path_165045" class="st17" d="M10.7,11.7h1.6v5.6h-1.6V11.7z"/>
				</g>
				<g id="Group_108236">
					<path id="Path_165046" class="st17" d="M7.4,6.2C6.9,6.5,6.5,6.9,6.2,7.3l-4-4c0.4-0.4,0.7-0.8,1.2-1.2L7.4,6.2z"/>
					<path id="Path_165047" class="st17" d="M5.6,9c0,0.4,0,0.7,0.1,1.1H0c0-0.2,0-0.3,0-0.5c0-0.4,0-0.8,0-1.2h5.7
						C5.7,8.6,5.6,8.8,5.6,9z"/>
					<path id="Path_165048" class="st17" d="M7.3,12.4l-4,4c-0.4-0.3-0.8-0.7-1.2-1.1l4-4C6.5,11.7,6.9,12.1,7.3,12.4z"/>
					<path id="Path_165049" class="st17" d="M10.1,0v5.6H9.4c-0.3,0-0.6,0-0.9,0.1V0C8.7,0,9,0,9.3,0H10.1z"/>
					<path id="Path_165050" class="st17" d="M10.1,12.9v5.6H9.5c-0.3,0-0.7,0-1-0.1v-5.7c0.3,0.1,0.5,0.1,0.8,0.1L10.1,12.9z"/>
				</g>
			</g>
		</g>
		<g id="Group_108239" transform="translate(0 18.59)">
			<path id="Path_165051" d="M56.8,4.2h-4.7c-0.5,0-0.8,0.4-0.8,0.8c0,0.5,0.4,0.8,0.8,0.8h4.7c0.8,0,1.5,0.7,1.5,1.5v2H35.2
				l-1.8-3.5h5.1c0.5,0,0.8-0.4,0.8-0.8c0-0.5-0.4-0.8-0.8-0.8h-5.9l-1.9-3.8C30.6,0.2,30.3,0,30,0H3.2C1.4,0,0,1.4,0,3.2v33.9
				c0,0.5,0.4,0.8,0.8,0.8s0.8-0.4,0.8-0.8l0,0V3.2c0-0.8,0.7-1.5,1.5-1.5h26.3l1.9,3.8l2.6,5.2c0.1,0.3,0.4,0.5,0.7,0.5h23.7v28.4
				c0,0.8-0.7,1.5-1.5,1.5H5.5c-0.5,0-0.8,0.4-0.8,0.8s0.4,0.8,0.8,0.8h51.4c1.7,0,3.2-1.4,3.2-3.2v-32C60,5.6,58.6,4.2,56.8,4.2z"
				/>
			<path id="Path_165052" d="M44.3,5.9h2c0.5,0,0.8-0.4,0.8-0.8c0-0.5-0.4-0.8-0.8-0.8h-2c-0.5,0-0.8,0.4-0.8,0.8S43.8,5.9,44.3,5.9
				L44.3,5.9z"/>
			<path id="Path_165053" d="M21.4,5.7h-5.5c-5.6,0-10.1,4.5-10.1,10.1c0,0.1,0,0.2,0,0.4c0.3,5.5,4.8,9.7,10.3,9.7h4.3V27
				c0,0.5,0.4,0.8,0.8,0.8c0.5,0,0.8-0.4,0.8-0.8v-9.4c0-0.5-0.4-0.8-0.8-0.8c-0.5,0-0.8,0.4-0.8,0.8v1.1H16c-1.6,0-2.8-1.3-2.8-2.8
				c0-0.1,0-0.1,0-0.2c0.1-1.5,1.4-2.7,2.9-2.6h5.4c2,0,3.6-1.6,3.6-3.6C25.1,7.3,23.5,5.7,21.4,5.7L21.4,5.7z M9.4,10.4l2.9,2.8
				c-0.4,0.5-0.6,1.1-0.7,1.7h-4C7.7,13.3,8.4,11.7,9.4,10.4L9.4,10.4z M9.5,21.1c-1.1-1.3-1.8-2.8-1.9-4.5h4
				c0.1,0.6,0.4,1.2,0.7,1.7L9.5,21.1z M20.5,24.2h-3.7v-4h3.7V24.2z M15.1,20.2v4c-1.6-0.2-3.2-0.9-4.5-1.9l2.8-2.8
				C13.9,19.8,14.5,20.1,15.1,20.2L15.1,20.2z M13.5,12.1l-2.9-2.9c1.3-1.1,2.9-1.7,4.5-1.9v4C14.5,11.5,14,11.8,13.5,12.1
				L13.5,12.1z M21.4,11.3h-4.7v-4h4.7c1.1,0,2,0.9,2,2S22.5,11.3,21.4,11.3L21.4,11.3z"/>
			<path id="Path_165054" d="M42.6,30.3H22.3c-1.8,0-3.3,1.5-3.3,3.3v0.6c0,1.8,1.5,3.3,3.3,3.3h20.2c5.1,0,9.4-4,9.7-9.1
				c0.2-5.2-3.9-9.6-9.1-9.8c-0.1,0-0.2,0-0.3,0h-4.5v-1.1c0-0.5-0.4-0.8-0.8-0.8s-0.8,0.4-0.8,0.8V27c0,0.5,0.4,0.8,0.8,0.8
				s0.8-0.4,0.8-0.8v-1.1h4.5c1.2,0,2.2,1,2.2,2.2c0,0.1,0,0.2,0,0.3C44.7,29.5,43.7,30.3,42.6,30.3z M43.5,20.3
				c1.5,0.2,2.9,0.8,4.1,1.7l-2.8,2.8c-0.4-0.2-0.8-0.4-1.3-0.5V20.3z M50.4,28.9c-0.2,1.5-0.8,2.9-1.7,4.1l-2.8-2.8
				c0.3-0.4,0.4-0.8,0.5-1.3L50.4,28.9z M44.7,31.3l2.8,2.8c-1.2,0.9-2.6,1.5-4.1,1.7v-4C43.9,31.7,44.3,31.6,44.7,31.3L44.7,31.3z
				 M32.8,31.9h3.7v4h-3.7V31.9z M31.2,35.9h-3.7v-4h3.7V35.9z M38.1,31.9h3.7v4h-3.7V31.9z M20.6,34.3v-0.6c0-0.9,0.7-1.7,1.7-1.7
				h3.5v4h-3.5C21.4,35.9,20.6,35.2,20.6,34.3z M50.5,27.3h-4c-0.1-0.4-0.3-0.9-0.5-1.3l2.8-2.8C49.7,24.3,50.3,25.8,50.5,27.3
				L50.5,27.3z M38.1,20.3h3.7v4h-3.7V20.3z"/>
		</g>
	</g>
	<g id="hackear" transform="translate(11426.541 -8370.114)">
		<g id="Group_108242" transform="translate(0.82 9.559)">
			<path id="Path_165055" class="st11" d="M0,8.8v33.6c0,1.2,0.9,2.1,2.1,2.1l0,0h17.6v-8.6c0-1,0.8-1.9,1.9-1.9h15.2
				c1,0,1.9,0.8,1.9,1.9l0,0v8.6h17.6c1.2,0,2.1-0.9,2.1-2.1V8.8H0z"/>
			<path id="Path_165056" class="st20" d="M2.3,0H56c1.3,0,2.3,1,2.3,2.3l0,0v6.5H0V2.3C0,1,1,0,2.3,0z"/>
			<g id="Group_108240" transform="translate(2.93 3.603)">
				<path id="Path_165057" class="st15" d="M51.7,1.6H19.5c-0.5,0-0.8-0.4-0.8-0.8c0-0.5,0.4-0.8,0.8-0.8l0,0h32.1
					c0.5,0,0.8,0.4,0.8,0.8C52.5,1.3,52.1,1.6,51.7,1.6L51.7,1.6z"/>
				<path id="Path_165058" class="st15" d="M3,1.6H0.8C0.4,1.6,0,1.3,0,0.8C0,0.4,0.4,0,0.8,0H3c0.5,0,0.8,0.4,0.8,0.8
					C3.8,1.3,3.4,1.6,3,1.6z"/>
				<path id="Path_165059" class="st15" d="M9.2,1.6H7.1c-0.5,0-0.8-0.4-0.8-0.8C6.2,0.4,6.6,0,7.1,0h2.2C9.7,0,10,0.4,10,0.8
					C10,1.3,9.7,1.6,9.2,1.6z"/>
				<path id="Path_165060" class="st15" d="M15.5,1.6h-2.2c-0.5,0-0.8-0.4-0.8-0.8c0-0.5,0.4-0.8,0.8-0.8h2.2c0.5,0,0.8,0.4,0.8,0.8
					C16.3,1.3,15.9,1.6,15.5,1.6z"/>
			</g>
			<g id="Group_108241" transform="translate(3.867 12.715)">
				<path id="Path_165061" class="st17" d="M11.3,0h-2c-1,0-1.8,0.8-1.8,1.8v3.9c0,1,0.8,1.8,1.8,1.8h2c1,0,1.8-0.8,1.8-1.8V1.8
					C13.1,0.8,12.3,0,11.3,0z M11.4,5.7c0,0.1-0.1,0.1-0.1,0.1l0,0h-2c-0.1,0-0.1-0.1-0.1-0.1l0,0V1.8c0-0.1,0.1-0.1,0.1-0.1l0,0h2
					c0.1,0,0.1,0.1,0.1,0.1l0,0V5.7z"/>
				<path id="Path_165062" class="st17" d="M18.8,0h-2c-1,0-1.8,0.8-1.8,1.8v3.9c0,1,0.8,1.8,1.8,1.8h2c1,0,1.8-0.8,1.8-1.8V1.8
					C20.6,0.8,19.8,0,18.8,0z M18.9,5.7c0,0.1-0.1,0.1-0.1,0.1l0,0h-2c-0.1,0-0.1-0.1-0.1-0.1l0,0V1.8c0-0.1,0.1-0.1,0.1-0.1l0,0h2
					c0.1,0,0.1,0.1,0.1,0.1l0,0V5.7z"/>
				<path id="Path_165063" class="st17" d="M33.8,0h-2c-1,0-1.8,0.8-1.8,1.8v3.9c0,1,0.8,1.8,1.8,1.8h2c1,0,1.8-0.8,1.8-1.8V1.8
					C35.6,0.8,34.8,0,33.8,0L33.8,0z M34,5.7C34,5.8,33.9,5.8,34,5.7l-2.1,0.1c-0.1,0-0.1-0.1-0.1-0.1V1.8c0-0.1,0.1-0.1,0.1-0.1h2
					C34,1.7,34,1.8,34,1.8V5.7z"/>
				<path id="Path_165064" class="st17" d="M48.9,0h-2c-1,0-1.8,0.8-1.8,1.8v3.9c0,1,0.8,1.8,1.8,1.8h2c1,0,1.8-0.8,1.8-1.8V1.8
					C50.6,0.8,49.8,0,48.9,0z M49,5.7C49,5.8,48.9,5.8,49,5.7l-2.1,0.1c-0.1,0-0.1-0.1-0.1-0.1V1.8c0-0.1,0.1-0.1,0.1-0.1h2
					C49,1.7,49,1.8,49,1.8V5.7z"/>
				<path id="Path_165065" class="st17" d="M3.8,10.3h-2c-1,0-1.8,0.8-1.8,1.8V16c0,1,0.8,1.8,1.8,1.8h2c1,0,1.8-0.8,1.8-1.8v-4
					C5.6,11.1,4.8,10.3,3.8,10.3z M3.9,15.9c0,0.1,0,0.1-0.1,0.1h-2c-0.1,0-0.1-0.1-0.1-0.1V12c0-0.1,0.1-0.1,0.1-0.1l0,0h2
					c0.1,0,0.1,0.1,0.1,0.1l0,0C3.9,12,3.9,15.9,3.9,15.9z"/>
				<path id="Path_165066" class="st17" d="M11.3,10.3h-2c-1,0-1.8,0.8-1.8,1.8V16c0,1,0.8,1.8,1.8,1.8h2c1,0,1.8-0.8,1.8-1.8v-4
					C13.1,11.1,12.3,10.3,11.3,10.3z M11.4,15.9c0,0.1-0.1,0.1-0.1,0.1h-2c-0.1,0-0.1-0.1-0.1-0.1V12c0-0.1,0.1-0.1,0.1-0.1l0,0h2
					c0.1,0,0.1,0.1,0.1,0.1l0,0V15.9z"/>
				<path id="Path_165067" class="st17" d="M41.4,10.3h-2c-1,0-1.8,0.8-1.8,1.8V16c0,1,0.8,1.8,1.8,1.8h2c1,0,1.8-0.8,1.8-1.8v-4
					C43.1,11.1,42.3,10.3,41.4,10.3z M41.5,15.9c0,0.1-0.1,0.1-0.1,0.1h-2c-0.1,0-0.1-0.1-0.1-0.1V12c0-0.1,0.1-0.1,0.1-0.1h2
					c0.1,0,0.1,0.1,0.1,0.1V15.9z"/>
				<path id="Path_165068" class="st17" d="M3.8,20.5h-2c-1,0-1.8,0.8-1.8,1.8v3.9c0,1,0.8,1.8,1.8,1.8h2c1,0,1.8-0.8,1.8-1.8v-3.9
					C5.6,21.3,4.8,20.5,3.8,20.5z M3.9,26.2c0,0.1-0.1,0.1-0.1,0.1h-2c-0.1,0-0.1-0.1-0.1-0.1v-3.9c0-0.1,0.1-0.1,0.1-0.1h2
					c0.1,0,0.1,0.1,0.1,0.1V26.2z"/>
				<path id="Path_165069" class="st17" d="M11.3,20.5h-2c-1,0-1.8,0.8-1.8,1.8v3.9c0,1,0.8,1.8,1.8,1.8h2c1,0,1.8-0.8,1.8-1.8v-3.9
					C13.1,21.3,12.3,20.5,11.3,20.5z M11.4,26.2c0,0.1-0.1,0.1-0.1,0.1h-2c-0.1,0-0.1-0.1-0.1-0.1v-3.9c0-0.1,0.1-0.1,0.1-0.1h2
					c0.1,0,0.1,0.1,0.1,0.1V26.2z"/>
				<path id="Path_165070" class="st17" d="M41.4,20.5h-2c-1,0-1.8,0.8-1.8,1.8v3.9c0,1,0.8,1.8,1.8,1.8h2c1,0,1.8-0.8,1.8-1.8v-3.9
					C43.1,21.3,42.3,20.5,41.4,20.5z M41.5,26.2c0,0.1-0.1,0.1-0.1,0.1h-2c-0.1,0-0.1-0.1-0.1-0.1v-3.9c0-0.1,0.1-0.1,0.1-0.1h2
					c0.1,0,0.1,0.1,0.1,0.1V26.2z"/>
				<path id="Path_165071" class="st17" d="M48.9,20.5h-2c-1,0-1.8,0.8-1.8,1.8v3.9c0,1,0.8,1.8,1.8,1.8h2c1,0,1.8-0.8,1.8-1.8v-3.9
					C50.6,21.3,49.8,20.5,48.9,20.5z M49,26.2c0,0.1-0.1,0.1-0.1,0.1h-2c-0.1,0-0.1-0.1-0.1-0.1v-3.9c0-0.1,0.1-0.1,0.1-0.1h2
					c0.1,0,0.1,0.1,0.1,0.1V26.2z"/>
				<path id="Path_165072" class="st17" d="M4.7,5.8H3.6v-5C3.6,0.4,3.2,0,2.8,0C2.6,0,2.4,0.1,2.3,0.2l-2,1.5C0,2-0.1,2.5,0.2,2.9
					C0.5,3.2,1,3.3,1.3,3L2,2.5v3.3H0.8C0.4,5.8,0,6.1,0,6.6s0.4,0.8,0.8,0.8h3.9c0.5,0,0.8-0.4,0.8-0.8S5.2,5.8,4.7,5.8L4.7,5.8z"
					/>
				<path id="Path_165073" class="st17" d="M49.8,16h-1.1v-5c0-0.5-0.4-0.8-0.8-0.8c-0.2,0-0.4,0.1-0.5,0.2l-2,1.5
					c-0.4,0.3-0.4,0.8-0.1,1.2s0.8,0.4,1.2,0.1l0.6-0.5V16H46c-0.5,0-0.8,0.4-0.8,0.8c0,0.5,0.4,0.8,0.8,0.8l0,0h3.9
					c0.5,0,0.8-0.4,0.8-0.8C50.6,16.4,50.3,16,49.8,16L49.8,16z"/>
				<path id="Path_165074" class="st17" d="M27.3,5.8h-1.1v-5c0-0.5-0.4-0.8-0.8-0.8c-0.2,0-0.4,0.1-0.5,0.2l-2,1.5
					c-0.4,0.3-0.4,0.8-0.1,1.2C23,3.2,23.5,3.3,23.9,3l0,0l0.6-0.5v3.3h-1.1c-0.5,0-0.8,0.4-0.8,0.8s0.4,0.8,0.8,0.8h3.9
					c0.5,0,0.8-0.4,0.8-0.8S27.7,5.8,27.3,5.8L27.3,5.8z"/>
				<path id="Path_165075" class="st17" d="M42.3,5.8h-1.1v-5c0-0.5-0.4-0.8-0.8-0.8c-0.2,0-0.4,0.1-0.5,0.2l-2,1.5
					c-0.4,0.3-0.4,0.8-0.1,1.2S38.6,3.3,39,3l0.6-0.5v3.3h-1.1c-0.5,0-0.8,0.4-0.8,0.8s0.4,0.8,0.8,0.8l0,0h3.9
					c0.5,0,0.8-0.4,0.8-0.8S42.7,5.8,42.3,5.8L42.3,5.8z"/>
			</g>
			<path id="Rectangle_36088" class="st21" d="M23.7,34.1h10.9c2.2,0,4,1.8,4,4v8.1c0,2.2-1.8,4-4,4H23.7c-2.2,0-4-1.8-4-4v-8.1
				C19.7,35.9,21.5,34.1,23.7,34.1z"/>
			<path id="Path_165076" class="st13" d="M36.1,34.1h-3.8v-4.6c0-1-0.8-1.9-1.9-1.9h-2.5c-1,0-1.9,0.8-1.9,1.9v0.9h-3.8v-0.9
				c0-3.1,2.5-5.6,5.6-5.6h2.5c3.1,0,5.6,2.5,5.6,5.6v4.6H36.1z"/>
			<path id="Path_165077" class="st22" d="M31.4,40.5c0-1.2-1-2.2-2.2-2.3c-1.2,0-2.2,1-2.3,2.2c0,0.9,0.6,1.8,1.4,2.1V46
				c0,0.5,0.4,0.8,0.8,0.8S30,46.4,30,46v-3.4C30.9,42.2,31.4,41.4,31.4,40.5z"/>
		</g>
		<g id="Group_108243" transform="translate(0 8.739)">
			<path id="Path_165078" d="M56.8,0h-36C20.4,0,20,0.4,20,0.8c0,0.5,0.4,0.8,0.8,0.8h36c0.8,0,1.5,0.7,1.5,1.5v5.7H1.6V3.2
				c0-0.8,0.7-1.5,1.5-1.5h5.4c0.5,0,0.8-0.4,0.8-0.8C9.4,0.4,9,0,8.6,0H3.2C1.4,0,0,1.4,0,3.2v40.1c0,1.6,1.3,2.9,2.9,2.9h16.8v2.9
				c0,1.5,1.2,2.7,2.7,2.7l0,0h14c0.5,0,0.8-0.4,0.8-0.8s-0.4-0.8-0.8-0.8h-14c-0.6,0-1.1-0.5-1.1-1.1V36.8c0-0.6,0.5-1.1,1.1-1.1
				h15.2c0.6,0,1.1,0.5,1.1,1.1v12.4c0,0.5,0.4,0.8,0.8,0.8s0.8-0.4,0.8-0.8v-2.9h16.8c1.6,0,2.9-1.3,2.9-2.9V3.2
				C60,1.4,58.6,0,56.8,0L56.8,0z M31.3,27.6h-2.5c-1.5,0-2.7,1.2-2.7,2.7l0,0v0.1H24v-0.1c0-2.6,2.2-4.8,4.8-4.8h2.5
				c2.6,0,4.8,2.2,4.8,4.8v3.8H34v-3.8C33.9,28.8,32.7,27.6,31.3,27.6z M58.4,43.3c0,0.7-0.6,1.3-1.3,1.3H40.3v-7.8
				c0-1.4-1.1-2.6-2.6-2.7v-3.8c0-3.6-2.9-6.4-6.4-6.4h-2.5c-3.6,0-6.4,2.9-6.5,6.4v0.9c0,0.5,0.4,0.8,0.8,0.8h3.8
				c0.5,0,0.8-0.4,0.8-0.8v-0.9c0-0.6,0.5-1.1,1.1-1.1h2.5c0.6,0,1.1,0.5,1.1,1.1v3.8h-9.9c-1.5,0-2.7,1.2-2.7,2.7l0,0v7.8H2.9
				c-0.7,0-1.3-0.6-1.3-1.3V10.5h56.7v32.8H58.4z"/>
			<path id="Path_165079" d="M13.3,1.6h2.8c0.5,0,0.8-0.4,0.8-0.8c0-0.5-0.4-0.8-0.8-0.8h-2.8c-0.5,0-0.8,0.4-0.8,0.8
				C12.5,1.3,12.8,1.6,13.3,1.6z"/>
			<path id="Path_165080" d="M55.4,6.1c0.5,0,0.8-0.4,0.8-0.8c0-0.5-0.4-0.8-0.8-0.8l0,0H23.3c-0.5,0-0.8,0.4-0.8,0.8
				c0,0.5,0.4,0.8,0.8,0.8l0,0H55.4z"/>
			<path id="Path_165081" d="M4.6,4.4c-0.5,0-0.8,0.4-0.8,0.8C3.8,5.7,4.2,6,4.6,6h2.2c0.5,0,0.8-0.4,0.8-0.8c0-0.5-0.4-0.8-0.8-0.8
				H4.6z"/>
			<path id="Path_165082" d="M10.8,6.1H13c0.5,0,0.8-0.4,0.8-0.8c0-0.5-0.4-0.8-0.8-0.8h-2.2c-0.5,0-0.8,0.4-0.8,0.8
				S10.4,6.1,10.8,6.1z"/>
			<path id="Path_165083" d="M16.2,5.2C16.2,5.7,16.6,6,17,6h2.2C19.7,6,20,5.6,20,5.2c0-0.5-0.4-0.8-0.8-0.8H17
				C16.6,4.4,16.2,4.8,16.2,5.2z"/>
			<path id="Path_165084" d="M14,21h2c1,0,1.8-0.8,1.8-1.8v-3.9c0-1-0.8-1.8-1.8-1.8h-2c-1,0-1.8,0.8-1.8,1.8v3.9
				C12.2,20.2,13,21,14,21z M13.8,15.3c0-0.1,0.1-0.1,0.1-0.1l0,0h2c0.1,0,0.1,0.1,0.1,0.1l0,0v3.9c0,0.1-0.1,0.1-0.1,0.1l0,0h-2
				c-0.1,0-0.1-0.1-0.1-0.1l0,0C13.8,19.2,13.8,15.3,13.8,15.3z"/>
			<path id="Path_165085" d="M21.5,21h2c1,0,1.8-0.8,1.8-1.8v-3.9c0-1-0.8-1.8-1.8-1.8h-2c-1,0-1.8,0.8-1.8,1.8v3.9
				C19.7,20.2,20.5,21,21.5,21z M21.4,15.3c0-0.1,0.1-0.1,0.1-0.1l0,0h2c0.1,0,0.1,0.1,0.1,0.1l0,0v3.9c0,0.1-0.1,0.1-0.1,0.1l0,0
				h-2c-0.1,0-0.1-0.1-0.1-0.1l0,0V15.3z"/>
			<path id="Path_165086" d="M36.5,21h2c1,0,1.8-0.8,1.8-1.8v-3.9c0-1-0.8-1.8-1.8-1.8h-2c-1,0-1.8,0.8-1.8,1.8v3.9
				C34.7,20.2,35.5,21,36.5,21z M36.4,15.3c0-0.1,0.1-0.1,0.1-0.1h2c0.1,0,0.1,0.1,0.1,0.1v3.9c0,0.1-0.1,0.1-0.1,0.1h-2
				c-0.1,0-0.1-0.1-0.1-0.1V15.3z"/>
			<path id="Path_165087" d="M51.5,21h2c1,0,1.8-0.8,1.8-1.8v-3.9c0-1-0.8-1.8-1.8-1.8h-2c-1,0-1.8,0.8-1.8,1.8v3.9
				C49.8,20.2,50.5,21,51.5,21z M51.4,15.3c0-0.1,0.1-0.1,0.1-0.1h2c0.1,0,0.1,0.1,0.1,0.1v3.9c0,0.1-0.1,0.1-0.1,0.1h-2
				c-0.1,0-0.1-0.1-0.1-0.1V15.3z"/>
			<path id="Path_165088" d="M6.4,31.2h2c1,0,1.8-0.8,1.8-1.8v-3.9c0-1-0.8-1.8-1.8-1.8h-2c-1,0-1.8,0.8-1.8,1.8v3.9
				C4.7,30.4,5.5,31.2,6.4,31.2z M6.3,25.6c0-0.1,0.1-0.1,0.1-0.1l0,0h2c0.1,0,0.1,0.1,0.1,0.1l0,0v3.9c0,0.1-0.1,0.1-0.1,0.1h-2
				c-0.1,0-0.1-0.1-0.1-0.1S6.3,25.6,6.3,25.6z"/>
			<path id="Path_165089" d="M14,31.2h2c1,0,1.8-0.8,1.8-1.8v-3.9c0-1-0.8-1.8-1.8-1.8h-2c-1,0-1.8,0.8-1.8,1.8v3.9
				C12.2,30.4,13,31.2,14,31.2z M13.8,25.6c0-0.1,0.1-0.1,0.1-0.1l0,0h2c0.1,0,0.1,0.1,0.1,0.1l0,0v3.9c0,0.1-0.1,0.1-0.1,0.1h-2
				c-0.1,0-0.1-0.1-0.1-0.1S13.8,25.6,13.8,25.6z"/>
			<path id="Path_165090" d="M44,31.2h2c1,0,1.8-0.8,1.8-1.8v-3.9c0-1-0.8-1.8-1.8-1.8h-2c-1,0-1.8,0.8-1.8,1.8v3.9
				C42.2,30.4,43,31.2,44,31.2z M43.9,25.6c0-0.1,0.1-0.1,0.1-0.1h2c0.1,0,0.1,0.1,0.1,0.1v3.9c0,0.1-0.1,0.1-0.1,0.1h-2
				c-0.1,0-0.1-0.1-0.1-0.1V25.6z"/>
			<path id="Path_165091" d="M6.4,41.5h2c1,0,1.8-0.8,1.8-1.8v-3.9c0-1-0.8-1.8-1.8-1.8h-2c-1,0-1.8,0.8-1.8,1.8v3.9
				C4.7,40.7,5.5,41.5,6.4,41.5z M6.3,35.8C6.3,35.7,6.4,35.7,6.3,35.8l2.1-0.1c0.1,0,0.1,0.1,0.1,0.1v3.9c0,0.1-0.1,0.1-0.1,0.1h-2
				c-0.1,0-0.1-0.1-0.1-0.1S6.3,35.8,6.3,35.8z"/>
			<path id="Path_165092" d="M14,41.5h2c1,0,1.8-0.8,1.8-1.8v-3.9c0-1-0.8-1.8-1.8-1.8h-2c-1,0-1.8,0.8-1.8,1.8v3.9
				C12.2,40.7,13,41.5,14,41.5z M13.8,35.8c0-0.1,0.1-0.1,0.1-0.1h2c0.1,0,0.1,0.1,0.1,0.1v3.9c0,0.1-0.1,0.1-0.1,0.1h-2
				c-0.1,0-0.1-0.1-0.1-0.1S13.8,35.8,13.8,35.8z"/>
			<path id="Path_165093" d="M44,41.5h2c1,0,1.8-0.8,1.8-1.8v-3.9c0-1-0.8-1.8-1.8-1.8h-2c-1,0-1.8,0.8-1.8,1.8v3.9
				C42.2,40.7,43,41.5,44,41.5z M43.9,35.8C43.9,35.7,44,35.7,43.9,35.8l2.1-0.1c0.1,0,0.1,0.1,0.1,0.1v3.9c0,0.1-0.1,0.1-0.1,0.1
				h-2c-0.1,0-0.1-0.1-0.1-0.1V35.8z"/>
			<path id="Path_165094" d="M51.5,41.5h2c1,0,1.8-0.8,1.8-1.8v-3.9c0-1-0.8-1.8-1.8-1.8h-2c-1,0-1.8,0.8-1.8,1.8v3.9
				C49.8,40.7,50.5,41.5,51.5,41.5z M51.4,35.8C51.4,35.7,51.5,35.7,51.4,35.8l2.1-0.1c0.1,0,0.1,0.1,0.1,0.1v3.9
				c0,0.1-0.1,0.1-0.1,0.1h-2c-0.1,0-0.1-0.1-0.1-0.1V35.8z"/>
			<path id="Path_165095" d="M5.5,19.3c-0.5,0-0.8,0.4-0.8,0.8S5.1,21,5.5,21h3.9c0.5,0,0.8-0.4,0.8-0.8s-0.4-0.8-0.8-0.8H8.3v-5
				c0-0.5-0.4-0.8-0.8-0.8c-0.2,0-0.4,0.1-0.5,0.2l-2,1.5c-0.4,0.3-0.4,0.8-0.1,1.2c0.3,0.4,0.8,0.4,1.2,0.1L6.6,16v3.3H5.5z"/>
			<path id="Path_165096" d="M50.6,31.2h3.9c0.5,0,0.8-0.4,0.8-0.8c0-0.5-0.4-0.8-0.8-0.8h-1.1v-5c0-0.5-0.4-0.8-0.8-0.8
				c-0.2,0-0.4,0.1-0.5,0.2l-2,1.5c-0.4,0.3-0.4,0.8-0.1,1.2s0.8,0.4,1.2,0.1l0.6-0.5v3.3h-1.1c-0.5,0-0.8,0.4-0.8,0.8
				C49.8,30.8,50.1,31.2,50.6,31.2L50.6,31.2L50.6,31.2z"/>
			<path id="Path_165097" d="M28,19.3c-0.5,0-0.8,0.4-0.8,0.8S27.6,21,28,21h4c0.5,0,0.8-0.4,0.8-0.8s-0.4-0.8-0.8-0.8h-1.1v-5
				c0-0.5-0.4-0.8-0.8-0.8c-0.2,0-0.4,0.1-0.5,0.2l-2,1.5c-0.4,0.3-0.4,0.8-0.1,1.2c0.3,0.4,0.8,0.4,1.2,0.1l0,0l0.6-0.5v3.3
				L28,19.3z"/>
			<path id="Path_165098" d="M43.1,19.3c-0.5,0-0.8,0.4-0.8,0.8s0.4,0.8,0.8,0.8H47c0.5,0,0.8-0.4,0.8-0.8s-0.4-0.8-0.8-0.8h-1.1v-5
				c0-0.5-0.4-0.8-0.8-0.8c-0.2,0-0.4,0.1-0.5,0.2l-2,1.5c-0.4,0.3-0.4,0.8-0.1,1.2c0.3,0.4,0.8,0.4,1.2,0.1l0.6-0.5v3.3H43.1z"/>
			<path id="Path_165099" d="M30,47.6c0.5,0,0.8-0.4,0.8-0.8v-2.6c1.6-0.5,2.6-2.1,2.1-3.8c-0.5-1.6-2.1-2.6-3.8-2.1
				s-2.6,2.1-2.1,3.8c0.3,1,1.1,1.8,2.1,2.1v2.6C29.2,47.3,29.5,47.6,30,47.6z M28.6,41.3c0-0.8,0.6-1.4,1.4-1.4s1.4,0.6,1.4,1.4
				c0,0.8-0.6,1.4-1.4,1.4l0,0C29.2,42.7,28.6,42.1,28.6,41.3z"/>
		</g>
	</g>
	<g id="troyano" transform="translate(11206.291 -8302.819)">
		<g id="Group_108249" transform="translate(0.82 1.445)">
			<path id="Path_165119" class="st20" d="M47,33.2v-1.6c0-6.7-5.5-12.2-12.2-12.2l0,0h-8.7c0-8.1-6.6-14.7-14.7-14.7H0
				c0,1.5,1,2.8,2.5,3.1c0,4,0.9,7.9,2.8,11.4L7.1,23h4.2v6.9c0,2.1,0.8,4.2,2.3,5.7s2.3,3.5,2.3,5.7v9.1h6.5V37.9h15
				c1.6,2.7,4.6,4.3,7.7,4.4H47v8h6.5V40c0-2.1-1.1-4-3-5L47,33.2z"/>
			<path id="Path_165120" class="st1" d="M48.5,19.4H34.8c3.5,0,6.8,1.5,9.1,4.1h2.2c2.8,0,5.1,2.3,5.1,5.1c0,3.9,3.2,7.1,7.1,7.1
				l0,0v-6.5C58.4,23.8,54,19.4,48.5,19.4z"/>
			<path id="Path_165121" class="st1" d="M6.6,4.7h4.8c8.1,0,14.7,6.6,14.7,14.7l0,0h4.7C30.7,8.7,22.1,0,11.4,0H0v4.7H6.6z"/>
			<path id="Path_165122" class="st17" d="M6.6,13.2c-0.5,0-0.8-0.4-0.8-0.8v-1.1c0-0.5,0.4-0.8,0.8-0.8c0.5,0,0.8,0.4,0.8,0.8v1.1
				C7.5,12.8,7.1,13.2,6.6,13.2L6.6,13.2z"/>
			<path id="Rectangle_36090" class="st13" d="M13.2,50.3h43.1c1.1,0,2.1,0.9,2.1,2.1l0,0c0,1.1-0.9,2.1-2.1,2.1H13.2
				c-1.1,0-2.1-0.9-2.1-2.1l0,0C11.2,51.2,12.1,50.3,13.2,50.3z"/>
			<g id="Group_108248" transform="translate(15.742 54.374)">
				<path id="Path_165123" class="st14" d="M0,0h7.7c0,1.9-1.5,3.4-3.4,3.4l0,0H3.4C1.5,3.4,0,1.9,0,0L0,0z"/>
				<path id="Path_165124" class="st14" d="M15.2,0h7.7c0,1.9-1.5,3.4-3.4,3.4l0,0h-0.9C16.7,3.4,15.2,1.9,15.2,0L15.2,0L15.2,0z"/>
				<path id="Path_165125" class="st14" d="M30.3,0H38c0,1.9-1.5,3.4-3.4,3.4l0,0h-0.9C31.9,3.4,30.3,1.9,30.3,0L30.3,0z"/>
			</g>
			<path id="Path_165126" class="st17" d="M14.1,10.7c-0.5,0-0.8,0.4-0.8,0.8v1.2c0,1-0.9,1.9-1.9,1.9c-0.5,0-0.8,0.4-0.8,0.8V20
				c0,0.5,0.4,0.8,0.8,0.8c0.5,0,0.8-0.4,0.8-0.8v-3.9c1.6-0.4,2.7-1.8,2.7-3.4v-1.2C14.9,11.1,14.6,10.7,14.1,10.7L14.1,10.7z"/>
		</g>
		<g id="Group_108250" transform="translate(0 0.625)">
			<path id="Path_165127" d="M51.2,29.4c0,4.4,3.6,8,8,8c0.5,0,0.8-0.4,0.8-0.8V30c0-3.2-1.4-6.2-3.9-8.3c-0.3-0.3-0.9-0.3-1.2,0.1
				S54.7,22.7,55,23l0,0c2.1,1.7,3.3,4.3,3.3,7v5.6c-3.1-0.4-5.5-3.1-5.5-6.3c0-3.3-2.7-5.9-5.9-5.9H45c-0.9-1-2-1.8-3.1-2.4h7.4
				c0.5,0,0.8-0.4,0.8-0.8c0-0.5-0.4-0.8-0.8-0.8l0,0h-17C31.9,8.6,23,0,12.2,0H0.8C0.4,0,0,0.4,0,0.8v4.7c0,1.6,1,3.1,2.5,3.7
				c0.1,3.9,1.1,7.7,2.8,11.2l1.9,3.8c0.1,0.3,0.4,0.4,0.7,0.4h3.4v6.1c0,2.3,0.9,4.6,2.6,6.2c1.4,1.3,2.1,3.2,2.1,5.1v8.3h-2.7
				c-1.2,0-2.2,1-2.2,2.2v1.3c0,1.2,1,2.2,2.2,2.2h2.4c0.4,2,2.1,3.4,4.1,3.4h0.9c2,0,3.7-1.4,4.1-3.4h6c0.4,2,2.1,3.4,4.1,3.4H36
				c2,0,3.7-1.4,4.1-3.4h6c0.4,2,2.1,3.4,4.1,3.4h0.9c2,0,3.7-1.4,4.1-3.4h2.4c1.2,0,2.2-1,2.2-2.2v-1.3c0-1.2-1-2.2-2.2-2.2h-2.7
				v-9.5c0-2.4-1.3-4.6-3.4-5.7l-3-1.6v-1.1c0-2.6-0.8-5.1-2.2-7.3h0.5C49.3,25.1,51.2,27,51.2,29.4z M12.2,1.6
				c9.9,0,18.1,7.8,18.5,17.7h-3c-0.4-8.2-7.2-14.7-15.5-14.7H1.6v-3C1.6,1.6,12.2,1.6,12.2,1.6z M20.9,57.8H20
				c-1.1,0-2.1-0.7-2.4-1.8h5.8C22.9,57.1,22,57.8,20.9,57.8z M36,57.8h-0.9c-1.1,0-2.1-0.7-2.4-1.8h5.8
				C38.1,57.1,37.1,57.8,36,57.8L36,57.8z M51.2,57.8h-0.9c-1.1,0-2.1-0.7-2.4-1.8h5.8C53.3,57.1,52.3,57.8,51.2,57.8L51.2,57.8z
				 M58.4,52.5v1.3c0,0.3-0.3,0.6-0.6,0.6H13.4c-0.3,0-0.6-0.3-0.6-0.6v-1.3c0-0.3,0.3-0.6,0.6-0.6h15.1c0.5,0,0.8-0.4,0.8-0.8
				s-0.4-0.8-0.8-0.8h-4.3V39.5h13.7c1.8,2.7,4.9,4.4,8.2,4.3H47v6.4h-4.5c-0.5,0-0.8,0.4-0.8,0.8s0.4,0.8,0.8,0.8h15.3
				C58.1,51.9,58.4,52.2,58.4,52.5L58.4,52.5z M47.4,34.7l3.5,1.8c1.6,0.8,2.6,2.5,2.6,4.2v9.5h-4.8V43c0-0.5-0.4-0.8-0.8-0.8h-1.7
				c-2.9,0-5.5-1.5-7-4c-0.1-0.2-0.4-0.4-0.7-0.4h-15c-0.5,0-0.8,0.4-0.8,0.8v11.6h-4.8V42c0-2.3-0.9-4.6-2.6-6.2
				c-1.4-1.3-2.1-3.2-2.1-5.1V17.1c1.6-0.4,2.7-1.8,2.7-3.4v-1.2c0-0.5-0.4-0.8-0.8-0.8c-0.5,0-0.8,0.4-0.8,0.8v1.2
				c0,1-0.9,1.9-1.9,1.9c-0.5,0-0.8,0.4-0.8,0.8V23H8.5l-1.7-3.3C5,16.2,4.1,12.4,4.1,8.6c0-0.4-0.3-0.7-0.6-0.8
				C2.7,7.6,2.1,7.1,1.8,6.3h10.4c7.7,0,13.9,6.2,13.9,13.9c0,0.5,0.4,0.8,0.8,0.8h8.7C41.9,21,47,26.1,47,32.4V34
				C47,34.3,47.1,34.6,47.4,34.7L47.4,34.7z"/>
			<path id="Path_165128" d="M7.5,11.3c-0.5,0-0.8,0.4-0.8,0.8v1.1C6.6,13.6,7,14,7.5,14s0.8-0.4,0.8-0.8l0,0v-1.1
				C8.3,11.6,7.9,11.3,7.5,11.3L7.5,11.3z"/>
			<path id="Path_165129" d="M36.4,50.3h-1.9c-0.5,0-0.8,0.4-0.8,0.8c0,0.5,0.4,0.8,0.8,0.8h1.9c0.5,0,0.8-0.4,0.8-0.8
				C37.2,50.6,36.9,50.3,36.4,50.3z"/>
		</g>
	</g>
	<g id="malware" transform="translate(10842.375 -8541.583)">
		<g id="Group_108246" transform="translate(0.82 9.65)">
			<path id="Path_165100" class="st11" d="M2.3,0H56c1.3,0,2.3,1,2.3,2.3l0,0v26.1H0V2.3C0,1,1,0,2.3,0z"/>
			<path id="Path_165101" class="st13" d="M0,28.4h58.4v5.8c0,1.3-1,2.3-2.3,2.3l0,0H2.3c-1.3,0-2.3-1-2.3-2.3l0,0V28.4z"/>
			<path id="Path_165102" class="st14" d="M38.9,46.6H19.5c2.9-1.3,4.7-4.2,4.7-7.4v-2.7h10v2.7C34.2,42.4,36,45.3,38.9,46.6
				L38.9,46.6z"/>
			<path id="Rectangle_36089" class="st13" d="M15.9,46.6h26.6c1,0,1.7,0.8,1.7,1.7l0,0c0,1-0.8,1.7-1.7,1.7H15.9
				c-1,0-1.7-0.8-1.7-1.7l0,0C14.1,47.4,14.9,46.6,15.9,46.6z"/>
			<path id="Path_165103" class="st15" d="M31.9,33.3h-5.5c-0.5,0-0.8-0.4-0.8-0.8c0-0.5,0.4-0.8,0.8-0.8h5.5c0.5,0,0.8,0.4,0.8,0.8
				C32.8,32.9,32.4,33.3,31.9,33.3z"/>
			<g id="Group_108245" transform="translate(19.18 3.867)">
				<path id="Path_165104" class="st17" d="M8.9,3.5C8.6,3.5,8.3,3.3,8.2,3L7.3,1.2c-0.2-0.4,0-0.9,0.4-1.1C8-0.1,8.5,0,8.7,0.4
					l0.9,1.8c0.2,0.4,0,0.9-0.4,1.1C9.2,3.4,9.1,3.5,8.9,3.5L8.9,3.5z"/>
				<path id="Path_165105" class="st17" d="M11.1,3.5c-0.5,0-0.8-0.4-0.8-0.8c0-0.1,0-0.3,0.1-0.4l0.9-1.8C11.5,0,12-0.1,12.4,0.1
					s0.6,0.7,0.4,1.1l-1,1.8C11.7,3.3,11.4,3.5,11.1,3.5z"/>
				<path id="Path_165106" class="st20" d="M8.4,2.7h3.2c0.8,0,1.4,0.6,1.4,1.4l0,0v2H7v-2C7,3.3,7.6,2.7,8.4,2.7z"/>
				<g id="Group_108244" transform="translate(0 4.883)">
					<path id="Path_165107" class="st19" d="M2.4,3.6C2.6,3.7,2.8,3.8,3,3.8h1.7c0.5,0,0.8-0.4,0.8-0.8c0-0.5-0.4-0.8-0.8-0.8H3.3
						l-1.9-2c-0.3-0.3-0.8-0.3-1.2,0s-0.3,0.8,0,1.2L2.4,3.6z"/>
					<path id="Path_165108" class="st19" d="M5.3,9.3H3c-0.2,0-0.4,0.1-0.6,0.2l-2.2,2.2c-0.3,0.3-0.3,0.8,0,1.2s0.8,0.3,1.2,0
						L3.3,11h2c0.5,0,0.8-0.4,0.8-0.8S5.8,9.3,5.3,9.3L5.3,9.3L5.3,9.3z"/>
					<path id="Path_165109" class="st19" d="M0.8,7.1h3.9c0.5,0,0.8-0.4,0.8-0.8S5.2,5.4,4.8,5.4h-4C0.4,5.4,0,5.8,0,6.2
						S0.4,7.1,0.8,7.1z"/>
					<path id="Path_165110" class="st19" d="M15.2,3.8H17c0.2,0,0.4-0.1,0.6-0.2l2.2-2.2c0.3-0.3,0.3-0.8,0-1.2s-0.8-0.3-1.2,0l0,0
						l-1.9,1.9h-1.4c-0.5,0-0.8,0.4-0.8,0.8C14.4,3.5,14.8,3.8,15.2,3.8L15.2,3.8z"/>
					<path id="Path_165111" class="st19" d="M17.6,9.5c-0.2-0.2-0.4-0.2-0.6-0.2h-2.3c-0.5,0-0.8,0.4-0.8,0.8s0.4,0.8,0.8,0.8l0,0
						h1.9l2,1.9c0.3,0.3,0.8,0.3,1.2,0c0.3-0.3,0.3-0.8,0-1.2L17.6,9.5z"/>
					<path id="Path_165112" class="st19" d="M19.2,5.4h-3.9c-0.5,0-0.8,0.4-0.8,0.8S14.9,7,15.3,7l0,0h3.9C19.7,7,20,6.6,20,6.2
						S19.6,5.4,19.2,5.4L19.2,5.4z"/>
				</g>
				<path id="Path_165113" class="st1" d="M6.6,6h6.7c1,0,1.9,0.8,1.9,1.9l0,0v4.8c0,2.9-2.3,5.2-5.2,5.2s-5.2-2.3-5.2-5.2V7.9
					C4.8,6.9,5.6,6,6.6,6L6.6,6z"/>
				<path id="Path_165114" class="st15" d="M9.2,17.8c0.5,0.1,1.1,0.1,1.6,0V6H9.2V17.8z"/>
			</g>
		</g>
		<g id="Group_108247" transform="translate(0 8.83)">
			<path id="Path_165115" d="M56.8,0H15c-0.5,0-0.8,0.4-0.8,0.8c0,0.5,0.4,0.8,0.8,0.8l0,0h41.9c0.8,0,1.5,0.7,1.5,1.5v25.3H1.6V3.2
				c0-0.8,0.7-1.5,1.5-1.5h3.7c0.5,0,0.8-0.4,0.8-0.8C7.7,0.4,7.3,0,6.9,0l0,0H3.2C1.4,0,0,1.4,0,3.2V35c0,1.7,1.4,3.2,3.2,3.2h21
				V40c0,2.8-1.6,5.3-4.1,6.6h-3.4c-1.4,0-2.6,1.1-2.6,2.6c0,1.4,1.1,2.6,2.6,2.6h26.6c1.4,0,2.6-1.1,2.6-2.6c0-1.4-1.1-2.6-2.6-2.6
				h-3.4c-2.5-1.2-4.1-3.8-4.1-6.6v-1.8h4.5c0.5,0,0.8-0.4,0.8-0.8s-0.4-0.8-0.8-0.8H3.2c-0.8,0-1.5-0.7-1.5-1.5v-5h56.7v5
				c0,0.8-0.7,1.5-1.5,1.5h-2.5c-0.5,0-0.8,0.4-0.8,0.8s0.4,0.8,0.8,0.8l0,0h2.5c1.7,0,3.2-1.4,3.2-3.2V3.2C60,1.4,58.6,0,56.8,0z
				 M44.2,49.2c0,0.5-0.4,0.9-0.9,0.9H16.7c-0.5,0-0.9-0.4-0.9-0.9s0.4-0.9,0.9-0.9c0,0,0,0,0.1,0h26.6
				C43.8,48.2,44.2,48.7,44.2,49.2L44.2,49.2z M34.2,38.2V40c0,2.5,1,4.9,2.9,6.6H22.9c1.8-1.7,2.9-4.1,2.9-6.6v-1.8H34.2z"/>
			<path id="Path_165116" d="M48.6,36.6H46c-0.5,0-0.8,0.4-0.8,0.8c0,0.5,0.4,0.8,0.8,0.8h2.6c0.5,0,0.8-0.4,0.8-0.8
				C49.4,36.9,49,36.6,48.6,36.6z"/>
			<path id="Path_165117" d="M27.3,32.5c-0.5,0-0.8,0.4-0.8,0.8c0,0.5,0.4,0.8,0.8,0.8h5.5c0.5,0,0.8-0.4,0.8-0.8
				c0-0.5-0.4-0.8-0.8-0.8H27.3z"/>
			<path id="Path_165118" d="M22.4,19.1l-2.2,2.2c-0.3,0.3-0.3,0.8,0,1.2s0.8,0.3,1.2,0l1.9-1.9h1.5c1.7,2.9,5.4,3.8,8.3,2
				c0.8-0.5,1.5-1.2,2-2h1.5l1.9,1.9c0.3,0.3,0.8,0.3,1.2,0s0.3-0.8,0-1.2l-2.2-2.2c-0.2-0.2-0.4-0.2-0.6-0.2h-1.1
				c0.1-0.5,0.2-1,0.2-1.5v-0.7h3.1c0.5,0,0.8-0.4,0.8-0.8c0-0.5-0.4-0.8-0.8-0.8l0,0H36v-1.6h1c0.2,0,0.4-0.1,0.6-0.2l2.2-2.2
				c0.3-0.3,0.3-0.8,0-1.2s-0.8-0.3-1.2,0l0,0l-1.9,1.9H36c-0.3-1-1.1-1.7-2.1-1.8V8.8c0-0.9-0.6-1.8-1.5-2.1l0.4-0.8
				c0.2-0.4,0-0.9-0.4-1.1c-0.4-0.2-0.9,0-1.1,0.4l-0.7,1.4h-1.1l-0.7-1.4c-0.2-0.4-0.7-0.6-1.1-0.4s-0.6,0.7-0.4,1.1l0.4,0.8
				c-0.9,0.3-1.5,1.1-1.5,2.1V10c-1,0.2-1.8,0.9-2.1,1.8h-0.7l-1.9-1.9c-0.3-0.3-0.8-0.3-1.2,0s-0.3,0.8,0,1.2l2.2,2.2
				c0.2,0.2,0.4,0.2,0.6,0.2H24V15h-3.1c-0.5,0-0.8,0.4-0.8,0.8c0,0.5,0.4,0.8,0.8,0.8H24v0.7c0,0.5,0.1,1,0.2,1.5H23
				C22.8,18.8,22.6,18.9,22.4,19.1z M28.4,8.2h3.2c0.3,0,0.6,0.3,0.6,0.6v1.1h-4.4V8.8C27.8,8.4,28.1,8.2,28.4,8.2L28.4,8.2
				L28.4,8.2z M34.4,12.6v4.8c0,2.1-1.5,3.9-3.6,4.3V11.5h2.5C34,11.5,34.4,12,34.4,12.6L34.4,12.6z M26.6,11.5h2.5v10.2
				c-2.1-0.4-3.6-2.2-3.6-4.3v-4.8C25.6,12,26.1,11.5,26.6,11.5z"/>
		</g>
	</g>
	<g>
		<path class="st5" d="M11401.5-8248.2h-2.5l-1,5.6h-3.1l2.7-15.3h5.1c1.7,0,3,0.4,3.9,1.2s1.3,1.9,1.2,3.3
			c-0.1,2.1-1.3,3.6-3.4,4.4l2.2,6.2v0.2h-3.3L11401.5-8248.2z M11399.4-8250.7h2.3c0.8,0,1.5-0.2,2-0.7c0.5-0.4,0.8-1,1-1.7
			c0.1-0.7,0-1.2-0.3-1.6c-0.3-0.4-0.8-0.6-1.5-0.6h-2.6L11399.4-8250.7z"/>
		<path class="st5" d="M11414.8-8242.6c-0.1-0.3-0.1-0.6-0.1-1c-0.9,0.9-1.8,1.3-2.9,1.2c-1,0-1.8-0.3-2.5-1c-0.7-0.6-1-1.4-0.9-2.3
			c0-1.2,0.6-2.2,1.6-2.9s2.3-1,4-1h1.4l0.1-0.7c0-0.2,0.1-0.5,0-0.7c0-0.3-0.2-0.6-0.4-0.8s-0.5-0.3-0.8-0.3
			c-0.5,0-0.9,0.1-1.2,0.3s-0.5,0.6-0.6,1h-3c0-1.1,0.5-2,1.5-2.6c1-0.7,2.1-1,3.5-1c1.3,0,2.3,0.4,3,1.2c0.7,0.7,1,1.7,0.9,2.9
			l-0.9,5.4l-0.1,0.7c0,0.5,0,0.9,0.2,1.3v0.2L11414.8-8242.6L11414.8-8242.6z M11412.5-8244.7c0.9,0,1.6-0.3,2.2-1.1l0.4-2h-1
			c-1.1,0-1.9,0.4-2.4,1c-0.2,0.2-0.3,0.5-0.3,0.9c-0.1,0.4,0,0.7,0.2,0.9S11412.1-8244.7,11412.5-8244.7z"/>
		<path class="st5" d="M11424.2-8254l-0.3,1.3c0.9-1.1,2-1.6,3.3-1.5c1.1,0,1.9,0.4,2.4,1.2s0.7,1.8,0.6,3.2l-1.2,7.2h-3l1.2-7.3
			c0-0.3,0-0.5,0-0.7c-0.1-0.7-0.5-1.1-1.3-1.1s-1.5,0.3-2.1,1.1l-1.4,8h-3l2-11.4H11424.2z"/>
		<path class="st5" d="M11437.9-8245.8c0.1-0.6-0.3-1-1.2-1.2l-1-0.2c-2.3-0.6-3.4-1.7-3.3-3.3c0-1.1,0.5-1.9,1.4-2.6
			c0.9-0.7,2-1,3.3-1s2.3,0.4,3.1,1c0.8,0.7,1.2,1.6,1.2,2.7h-2.9c0-1-0.5-1.5-1.5-1.5c-0.5,0-0.9,0.1-1.2,0.3s-0.5,0.5-0.6,0.9
			c-0.1,0.6,0.3,1,1.3,1.2l0.4,0.1c1,0.2,1.7,0.5,2.2,0.8s0.9,0.7,1.2,1.1c0.3,0.4,0.4,1,0.4,1.6c0,0.7-0.3,1.4-0.7,1.9
			s-1.1,1-1.8,1.3c-0.8,0.3-1.6,0.4-2.4,0.4c-1.3,0-2.3-0.4-3.2-1.1c-0.8-0.7-1.3-1.6-1.3-2.8h2.8c0,1.1,0.6,1.6,1.7,1.7
			c0.5,0,1-0.1,1.4-0.3C11437.6-8245.1,11437.8-8245.4,11437.9-8245.8z"/>
		<path class="st5" d="M11448.6-8254.2c1,0,1.9,0.3,2.6,0.8c0.7,0.5,1.3,1.2,1.6,2.1c0.3,0.9,0.5,1.9,0.4,2.9
			c-0.2,1.8-0.8,3.3-1.9,4.4c-1.1,1.1-2.5,1.7-4.1,1.6c-1,0-1.8-0.3-2.6-0.8s-1.3-1.2-1.6-2.1c-0.3-0.9-0.5-1.8-0.4-2.9
			c0.2-1.9,0.8-3.4,1.9-4.5C11445.7-8253.7,11447-8254.2,11448.6-8254.2z M11445.6-8247c0,0.7,0.2,1.2,0.5,1.6
			c0.3,0.4,0.7,0.6,1.3,0.6c0.9,0,1.6-0.4,2.1-1.3s0.8-2,0.7-3.4c0-0.7-0.2-1.2-0.5-1.6c-0.3-0.4-0.7-0.6-1.3-0.6
			c-0.9,0-1.6,0.4-2.1,1.2S11445.6-8248.5,11445.6-8247z"/>
		<path class="st5" d="M11458.8-8254l-0.2,1.3c0.9-1,2-1.5,3.3-1.5c0.7,0,1.3,0.2,1.7,0.5s0.8,0.7,0.9,1.3c1-1.2,2.2-1.8,3.5-1.7
			c1,0,1.8,0.4,2.4,1.1s0.8,1.7,0.7,3v0.3l-1.2,7.2h-3l1.2-7.3c0-0.3,0-0.5,0-0.7c0-0.7-0.5-1.1-1.3-1.1s-1.5,0.4-2.1,1.3v0.2
			l-1.3,7.6h-3l1.2-7.2c0-0.3,0-0.5,0-0.7c0-0.7-0.5-1.1-1.3-1.1s-1.4,0.3-2,1.1l-1.4,8.1h-3l2-11.4L11458.8-8254z"/>
		<path class="st5" d="M11482.5-8246.7l2.7-7.2h3l-4.8,11.4h-2.5l-0.8-7.1l-3.3,7.1h-2.5l-0.8-11.4h2.8l0.2,7.2l3.2-7.2h2.1
			L11482.5-8246.7z"/>
		<path class="st5" d="M11494.3-8242.6c-0.1-0.3-0.1-0.6-0.1-1c-0.9,0.9-1.8,1.3-2.9,1.2c-1,0-1.8-0.3-2.5-1c-0.7-0.6-1-1.4-0.9-2.3
			c0-1.2,0.6-2.2,1.6-2.9s2.3-1,4-1h1.4l0.1-0.7c0-0.2,0.1-0.5,0-0.7c0-0.3-0.2-0.6-0.4-0.8s-0.5-0.3-0.8-0.3
			c-0.5,0-0.9,0.1-1.2,0.3s-0.5,0.6-0.6,1h-3c0-1.1,0.5-2,1.5-2.6c1-0.7,2.1-1,3.5-1c1.3,0,2.3,0.4,3,1.2c0.7,0.7,1,1.7,0.9,2.9
			l-0.9,5.4l-0.1,0.7c0,0.5,0,0.9,0.2,1.3v0.2L11494.3-8242.6L11494.3-8242.6z M11492-8244.7c0.9,0,1.6-0.3,2.2-1.1l0.4-2h-1
			c-1.1,0-1.9,0.4-2.4,1c-0.2,0.2-0.3,0.5-0.3,0.9c-0.1,0.4,0,0.7,0.2,0.9S11491.6-8244.7,11492-8244.7z"/>
		<path class="st5" d="M11506.8-8251.1c-0.4-0.1-0.7-0.1-1-0.1c-1.1,0-1.9,0.4-2.5,1.2l-1.3,7.4h-3l2-11.4h2.8l-0.3,1.4
			c0.7-1.1,1.6-1.6,2.7-1.6c0.3,0,0.6,0,1,0.1L11506.8-8251.1z"/>
		<path class="st5" d="M11511.9-8242.4c-1,0-1.9-0.2-2.6-0.7s-1.3-1.1-1.7-2c-0.4-0.8-0.5-1.8-0.4-2.8v-0.4c0.1-1.1,0.4-2.1,1-3
			c0.5-0.9,1.2-1.6,2.1-2.1c0.8-0.5,1.8-0.7,2.8-0.7c1.5,0,2.6,0.6,3.3,1.6s1,2.4,0.9,4l-0.2,1.3h-7c0,0.7,0.2,1.3,0.5,1.8
			c0.4,0.4,0.9,0.7,1.6,0.7c1.1,0,2-0.4,2.8-1.3l1.4,1.7c-0.4,0.6-1,1.1-1.9,1.5C11513.7-8242.5,11512.9-8242.4,11511.9-8242.4z
			 M11512.9-8251.7c-0.5,0-1,0.2-1.5,0.5c-0.4,0.4-0.8,1-1.1,1.9h4.1l0.1-0.3c0-0.3,0-0.5,0-0.8c-0.1-0.4-0.2-0.7-0.5-1
			C11513.6-8251.6,11513.3-8251.7,11512.9-8251.7z"/>
	</g>
	<g>
		<path class="st5" d="M11561.9-8418l-2,1.9l-0.7,4.2h-3.1l2.7-15.3h3.1l-1.2,6.8l1.6-1.8l4.6-5h4l-6.6,7l3.9,8.3h-3.5L11561.9-8418
			z"/>
		<path class="st5" d="M11574.3-8411.7c-1,0-1.9-0.2-2.6-0.7s-1.3-1.1-1.7-2c-0.4-0.8-0.5-1.8-0.4-2.8v-0.4c0.1-1.1,0.4-2.1,1-3
			c0.5-0.9,1.2-1.6,2.1-2.1c0.8-0.5,1.8-0.7,2.8-0.7c1.5,0,2.6,0.6,3.3,1.6s1,2.4,0.9,4l-0.2,1.3h-7c0,0.7,0.2,1.3,0.5,1.8
			c0.4,0.4,0.9,0.7,1.6,0.7c1.1,0,2-0.4,2.8-1.3l1.4,1.7c-0.4,0.6-1,1.1-1.8,1.5C11576.1-8411.8,11575.3-8411.6,11574.3-8411.7z
			 M11575.3-8421c-0.5,0-1,0.2-1.5,0.5c-0.4,0.4-0.8,1-1.1,1.9h4.1l0.1-0.3c0-0.3,0-0.5,0-0.8c-0.1-0.4-0.2-0.7-0.5-1
			C11576-8420.9,11575.7-8421,11575.3-8421z"/>
		<path class="st5" d="M11585-8416.2l3.2-7h3.3l-6.7,13.1c-0.5,1-1,1.7-1.7,2.2c-0.6,0.5-1.4,0.7-2.2,0.7c-0.3,0-0.8-0.1-1.4-0.2
			l0.2-2.3h0.4c1,0,1.7-0.3,2.1-1.1l0.7-1.2l-1.9-11.2h3.1L11585-8416.2z"/>
		<path class="st5" d="M11593.9-8411.9h-3l2.8-16.2h3L11593.9-8411.9z"/>
		<path class="st5" d="M11602.9-8423.5c1,0,1.9,0.3,2.6,0.8c0.7,0.5,1.3,1.2,1.6,2.1c0.3,0.9,0.5,1.9,0.4,2.9
			c-0.2,1.8-0.8,3.3-1.9,4.4s-2.5,1.7-4.1,1.6c-1,0-1.8-0.3-2.6-0.8c-0.7-0.5-1.3-1.2-1.6-2.1c-0.3-0.9-0.5-1.8-0.4-2.9
			c0.2-1.9,0.8-3.4,1.9-4.5C11600-8423,11601.3-8423.5,11602.9-8423.5z M11599.9-8416.3c0,0.7,0.2,1.2,0.5,1.6
			c0.3,0.4,0.7,0.6,1.3,0.6c0.9,0,1.6-0.4,2.1-1.3c0.5-0.9,0.8-2,0.7-3.4c0-0.7-0.2-1.2-0.5-1.6c-0.3-0.4-0.7-0.6-1.3-0.6
			c-0.9,0-1.6,0.4-2.1,1.2S11599.9-8417.8,11599.9-8416.3z"/>
		<path class="st5" d="M11608.9-8417.6c0.2-1.8,0.8-3.2,1.7-4.3s2.1-1.6,3.5-1.6c1.2,0,2.1,0.5,2.7,1.3l0.4-1.1h2.7l-1.9,11
			c-0.2,1.5-0.8,2.7-1.9,3.6c-1.1,0.9-2.4,1.3-4,1.3c-0.8,0-1.5-0.2-2.2-0.5s-1.3-0.8-1.8-1.3l1.5-1.8c0.7,0.8,1.5,1.3,2.5,1.3
			c0.8,0,1.4-0.2,2-0.6c0.5-0.4,0.9-1,1.1-1.8l0.2-0.7c-0.8,0.8-1.8,1.2-2.8,1.2c-1.1,0-2-0.4-2.6-1.2c-0.7-0.8-1-1.9-1.1-3.2
			C11608.8-8416.5,11608.8-8417,11608.9-8417.6z M11611.8-8416.3c0,0.7,0.1,1.2,0.4,1.6s0.7,0.6,1.2,0.6c0.8,0,1.5-0.3,2.1-1
			l0.9-4.8c-0.3-0.7-0.9-1-1.7-1s-1.4,0.3-1.9,0.9s-0.9,1.5-1,2.5C11611.8-8417.1,11611.8-8416.6,11611.8-8416.3z"/>
		<path class="st5" d="M11620.9-8417.6c0.2-1.8,0.8-3.2,1.7-4.3s2.1-1.6,3.5-1.6c1.2,0,2.1,0.5,2.7,1.3l0.4-1.1h2.7l-1.9,11
			c-0.2,1.5-0.8,2.7-1.9,3.6c-1.1,0.9-2.4,1.3-4,1.3c-0.8,0-1.5-0.2-2.2-0.5s-1.3-0.8-1.8-1.3l1.5-1.8c0.7,0.8,1.5,1.3,2.5,1.3
			c0.8,0,1.4-0.2,2-0.6c0.5-0.4,0.9-1,1.1-1.8l0.2-0.7c-0.8,0.8-1.8,1.2-2.8,1.2c-1.1,0-2-0.4-2.6-1.2s-1-1.9-1.1-3.2
			C11620.9-8416.5,11620.9-8417,11620.9-8417.6z M11623.8-8416.3c0,0.7,0.1,1.2,0.4,1.6c0.3,0.4,0.7,0.6,1.2,0.6
			c0.8,0,1.5-0.3,2.1-1l0.9-4.8c-0.3-0.7-0.9-1-1.7-1s-1.4,0.3-1.9,0.9c-0.5,0.6-0.9,1.5-1,2.5
			C11623.9-8417.1,11623.8-8416.6,11623.8-8416.3z"/>
		<path class="st5" d="M11637.8-8411.7c-1,0-1.9-0.2-2.6-0.7s-1.3-1.1-1.7-2s-0.5-1.8-0.4-2.8v-0.4c0.1-1.1,0.4-2.1,1-3
			c0.5-0.9,1.2-1.6,2.1-2.1c0.8-0.5,1.8-0.7,2.8-0.7c1.5,0,2.6,0.6,3.3,1.6s1,2.4,0.9,4l-0.2,1.3h-7c0,0.7,0.2,1.3,0.5,1.8
			c0.4,0.4,0.9,0.7,1.6,0.7c1.1,0,2-0.4,2.8-1.3l1.4,1.7c-0.4,0.6-1,1.1-1.9,1.5C11639.6-8411.8,11638.7-8411.6,11637.8-8411.7z
			 M11638.7-8421c-0.5,0-1,0.2-1.5,0.5s-0.8,1-1.1,1.9h4.1l0.1-0.3c0-0.3,0-0.5,0-0.8c-0.1-0.4-0.2-0.7-0.5-1
			C11639.5-8420.9,11639.2-8421,11638.7-8421z"/>
		<path class="st5" d="M11651.6-8420.4c-0.4-0.1-0.7-0.1-1-0.1c-1.1,0-1.9,0.4-2.5,1.2l-1.3,7.4h-3l2-11.4h2.8l-0.3,1.4
			c0.7-1.1,1.6-1.6,2.7-1.6c0.3,0,0.6,0,1,0.1L11651.6-8420.4z"/>
		<path class="st5" d="M11658.1-8415.1c0.1-0.6-0.3-1-1.2-1.2l-1-0.2c-2.3-0.6-3.4-1.7-3.3-3.3c0-1.1,0.5-1.9,1.4-2.6
			c0.9-0.7,2-1,3.3-1s2.3,0.4,3.1,1c0.8,0.7,1.2,1.6,1.2,2.7h-2.9c0-1-0.5-1.5-1.5-1.5c-0.5,0-0.9,0.1-1.2,0.3s-0.5,0.5-0.6,0.9
			c-0.1,0.6,0.3,1,1.3,1.2l0.4,0.1c1,0.2,1.7,0.5,2.2,0.8s0.9,0.7,1.2,1.1s0.4,1,0.4,1.6c0,0.7-0.3,1.4-0.7,1.9s-1.1,1-1.8,1.3
			c-0.8,0.3-1.6,0.4-2.4,0.4c-1.3,0-2.3-0.4-3.2-1.1c-0.8-0.7-1.3-1.6-1.3-2.8h2.8c0,1.1,0.6,1.6,1.7,1.7c0.5,0,1-0.1,1.3-0.3
			C11657.8-8414.4,11658-8414.7,11658.1-8415.1z"/>
	</g>
	<g>
		<path class="st23" d="M11207.6-8528.6l1.8,10.8l5.6-10.8h4l-2.6,14.9h-3l0.7-4.3l1.5-6.6l-5.7,10.9h-2.1l-2-11.3l-1,7.4l-0.7,3.9
			h-3l2.6-14.9L11207.6-8528.6L11207.6-8528.6z"/>
		<path class="st23" d="M11225.3-8513.7c-0.1-0.3-0.1-0.6-0.1-1c-0.8,0.8-1.8,1.2-2.8,1.2s-1.8-0.3-2.4-0.9
			c-0.6-0.6-0.9-1.4-0.9-2.3c0-1.2,0.6-2.1,1.5-2.8c1-0.6,2.3-1,3.9-1h1.4l0.1-0.7c0-0.2,0.1-0.4,0-0.6c0-0.3-0.2-0.6-0.4-0.8
			s-0.5-0.3-0.8-0.3c-0.5,0-0.8,0.1-1.1,0.3s-0.5,0.6-0.6,1h-2.9c0-1.1,0.5-1.9,1.5-2.6c0.9-0.7,2.1-1,3.4-1c1.3,0,2.2,0.4,3,1.1
			c0.7,0.7,1,1.7,0.9,2.8l-0.9,5.3l-0.1,0.7c0,0.5,0,0.9,0.2,1.2v0.2h-2.9V-8513.7z M11223.1-8515.7c0.8,0,1.6-0.3,2.2-1.1l0.4-1.9
			h-1c-1.1,0-1.8,0.4-2.3,1c-0.2,0.2-0.3,0.5-0.3,0.8c-0.1,0.4,0,0.7,0.2,0.9C11222.4-8515.8,11222.7-8515.7,11223.1-8515.7z"/>
		<path class="st23" d="M11232.9-8513.7h-2.9l2.7-15.8h2.9L11232.9-8513.7z"/>
		<path class="st23" d="M11245.4-8517.7l2.6-7.1h2.9l-4.7,11.1h-2.4l-0.8-6.9l-3.2,6.9h-2.4l-0.8-11.1h2.7l0.2,7l3.2-7h2.1
			L11245.4-8517.7z"/>
		<path class="st23" d="M11256.9-8513.7c-0.1-0.3-0.1-0.6-0.1-1c-0.8,0.8-1.8,1.2-2.8,1.2s-1.8-0.3-2.4-0.9
			c-0.6-0.6-0.9-1.4-0.9-2.3c0-1.2,0.6-2.1,1.5-2.8c1-0.6,2.3-1,3.9-1h1.4l0.1-0.7c0-0.2,0.1-0.4,0-0.6c0-0.3-0.2-0.6-0.4-0.8
			s-0.5-0.3-0.8-0.3c-0.5,0-0.8,0.1-1.1,0.3s-0.5,0.6-0.6,1h-2.9c0-1.1,0.5-1.9,1.5-2.6c0.9-0.7,2.1-1,3.4-1c1.3,0,2.2,0.4,3,1.1
			c0.7,0.7,1,1.7,0.9,2.8l-0.9,5.3l-0.1,0.7c0,0.5,0,0.9,0.2,1.2v0.2h-2.9V-8513.7z M11254.7-8515.7c0.8,0,1.6-0.3,2.2-1.1l0.4-1.9
			h-1c-1.1,0-1.8,0.4-2.3,1c-0.2,0.2-0.3,0.5-0.3,0.8c-0.1,0.4,0,0.7,0.2,0.9C11254-8515.8,11254.3-8515.7,11254.7-8515.7z"/>
		<path class="st23" d="M11269.1-8522c-0.4-0.1-0.7-0.1-1-0.1c-1,0-1.8,0.4-2.5,1.2l-1.3,7.3h-2.9l1.9-11.1h2.7l-0.3,1.4
			c0.7-1,1.6-1.6,2.6-1.6c0.3,0,0.6,0,1,0.1L11269.1-8522z"/>
		<path class="st23" d="M11274.1-8513.5c-1,0-1.8-0.2-2.6-0.7c-0.7-0.5-1.3-1.1-1.7-1.9s-0.5-1.7-0.4-2.7v-0.4
			c0.1-1.1,0.4-2.1,0.9-3s1.2-1.6,2-2.1s1.7-0.7,2.7-0.7c1.4,0,2.5,0.6,3.2,1.6s1,2.3,0.8,3.9l-0.2,1.3h-6.8c0,0.7,0.1,1.3,0.5,1.7
			s0.9,0.7,1.5,0.7c1.1,0,2-0.4,2.8-1.2l1.3,1.6c-0.4,0.6-1,1.1-1.8,1.5S11275-8513.5,11274.1-8513.5z M11275-8522.6
			c-0.5,0-1,0.2-1.4,0.5s-0.8,1-1.1,1.8h4l0.1-0.3c0-0.3,0-0.5,0-0.8c-0.1-0.4-0.2-0.7-0.5-0.9S11275.4-8522.6,11275-8522.6z"/>
	</g>
</g>
</svg>
